<?xml version="1.0" encoding="utf-8"?>
<svg width="607.80664px" height="494.77722px" viewBox="0 0 607.80664 494.77722" version="1.1" xmlns:xlink="http://www.w3.org/1999/xlink" xmlns="http://www.w3.org/2000/svg">
  <defs>
    <linearGradient gradientUnits="userSpaceOnUse" x1="69.132774" y1="174.06902" x2="483.56314" y2="-136.11531" id="gradient_1">
      <stop offset="0%" stop-color="#E53656" />
      <stop offset="100%" stop-color="#6082D8" />
    </linearGradient>
    <linearGradient gradientUnits="userSpaceOnUse" x1="17.289259" y1="38.780052" x2="54.1115" y2="-46.71723" id="gradient_2">
      <stop offset="0%" stop-color="#E53656" />
      <stop offset="100%" stop-color="#6082D8" />
    </linearGradient>
    <linearGradient gradientUnits="userSpaceOnUse" x1="42.666565" y1="38.22768" x2="80.945274" y2="-50.927963" id="gradient_3">
      <stop offset="0%" stop-color="#E53656" />
      <stop offset="100%" stop-color="#6082D8" />
    </linearGradient>
    <linearGradient gradientUnits="userSpaceOnUse" x1="46.88361" y1="23.8923" x2="88.94568" y2="-31.829977" id="gradient_4">
      <stop offset="0%" stop-color="#E53656" />
      <stop offset="100%" stop-color="#6082D8" />
    </linearGradient>
    <filter filterUnits="userSpaceOnUse" color-interpolation-filters="sRGB" id="filter_1">
      <feFlood flood-opacity="0" result="BackgroundImageFix" />
      <feColorMatrix in="SourceAlpha" type="matrix" values="0 0 0 0 0 0 0 0 0 0 0 0 0 0 0 0 0 0 127 0" />
      <feOffset dx="0" dy="4" />
      <feGaussianBlur stdDeviation="4" />
      <feColorMatrix type="matrix" values="0 0 0 0 0 0 0 0 0 0 0 0 0 0 0 0 0 0 0.2 0" />
      <feBlend mode="normal" in2="BackgroundImageFix" result="effect0_dropShadow" />
      <feBlend mode="normal" in="SourceGraphic" in2="effect0_dropShadow" result="shape" />
    </filter>
    <filter filterUnits="userSpaceOnUse" color-interpolation-filters="sRGB" id="filter_2">
      <feFlood flood-opacity="0" result="BackgroundImageFix" />
      <feColorMatrix in="SourceAlpha" type="matrix" values="0 0 0 0 0 0 0 0 0 0 0 0 0 0 0 0 0 0 127 0" />
      <feOffset dx="0" dy="3" />
      <feGaussianBlur stdDeviation="2" />
      <feColorMatrix type="matrix" values="0 0 0 0 0 0 0 0 0 0 0 0 0 0 0 0 0 0 0.2 0" />
      <feBlend mode="normal" in2="BackgroundImageFix" result="effect0_dropShadow" />
      <feBlend mode="normal" in="SourceGraphic" in2="effect0_dropShadow" result="shape" />
    </filter>
    <filter filterUnits="userSpaceOnUse" color-interpolation-filters="sRGB" id="filter_3">
      <feFlood flood-opacity="0" result="BackgroundImageFix" />
      <feColorMatrix in="SourceAlpha" type="matrix" values="0 0 0 0 0 0 0 0 0 0 0 0 0 0 0 0 0 0 127 0" />
      <feOffset dx="-3" dy="6" />
      <feGaussianBlur stdDeviation="3.5" />
      <feColorMatrix type="matrix" values="0 0 0 0 0 0 0 0 0 0 0 0 0 0 0 0 0 0 0.1254902 0" />
      <feBlend mode="normal" in2="BackgroundImageFix" result="effect0_dropShadow" />
      <feBlend mode="normal" in="SourceGraphic" in2="effect0_dropShadow" result="shape" />
    </filter>
  </defs>
  <g filter="url(#filter_3)">
    <g id="Сердце-изометрия" transform="matrix(0.9945219 0.104528464 -0.104528464 0.9945219 780.3496 291.0415)">
      <g filter="url(#filter_1)">
        <g id="Heart" transform="translate(126.79323 90.079926)">
          <path d="M91.2195 79.8026C66.8033 76.2448 41.3194 82.2042 23.5683 97.3836C-7.90409 125.735 -7.3566 172.849 24.8152 201.328C64.1826 233.561 131.04 225.034 232.332 212.727L256.784 209.855C259.023 209.594 260.908 208.105 260.992 206.546L261.918 189.464C265.704 119.144 268.218 73.1218 228.85 40.8888C196.678 12.4098 146.857 4.04194 115.384 25.1858C97.633 37.9229 89.0432 58.7569 91.2195 79.8026Z" id="Shape-Copy" fill="#B74256" fill-rule="evenodd" stroke="none" />
          <path d="M91.2195 66.6607C66.8033 63.1029 41.3194 69.0623 23.5683 84.2417C-7.90409 112.593 -7.3566 159.707 24.8152 188.186C64.1826 220.419 131.04 211.892 232.332 199.585L256.784 196.713C259.023 196.452 260.908 194.963 260.992 193.405L261.918 176.322C265.704 106.002 268.218 59.9799 228.85 27.7469C196.678 -0.732164 146.857 -9.09998 115.384 12.0439C97.633 24.781 89.0432 45.615 91.2195 66.6607Z" id="Shape" fill="url(#gradient_1)" fill-rule="evenodd" stroke="none" />
        </g>
      </g>
      <g filter="url(#filter_2)">
        <g id="Oval" transform="matrix(0.9848077 -0.17364818 0.17364818 0.9848077 93.29128 342.61047)">
          <path d="M47.5883 63.3799C61.6253 59.5928 67.611 46.3789 60.9577 33.8658C54.3044 21.3527 37.5315 14.279 23.4945 18.0661C9.45743 21.8532 3.47173 35.0671 10.125 47.5802C16.7784 60.0932 33.5512 67.167 47.5883 63.3799Z" id="Oval-3-Copy-3" fill="none" fill-rule="evenodd" stroke="#B74256" stroke-width="10" />
          <path d="M47.0736 57.948C61.3873 55.3987 68.5018 42.7568 62.9644 29.7114C57.427 16.6661 41.3345 8.15741 27.0208 10.7067C12.7071 13.256 5.59253 25.8979 11.1299 38.9433C16.6673 51.9886 32.7599 60.4973 47.0736 57.948Z" id="Oval-3-Copy-2" fill="none" fill-rule="evenodd" stroke="#E73453" stroke-width="10" />
        </g>
      </g>
      <g filter="url(#filter_2)">
        <g id="Oval" transform="matrix(0.9563048 -0.2923717 0.2923717 0.9563048 32.190453 234.07555)">
          <path d="M38.8622 53.2879C50.4221 50.1691 55.3515 39.2871 49.8723 28.9822C44.3931 18.6773 30.5802 12.8519 19.0202 15.9707C7.46033 19.0895 2.53093 29.9715 8.01013 40.2764C13.4893 50.5813 27.3023 56.4067 38.8622 53.2879Z" id="Oval-3-Copy" fill="#B74256" fill-rule="evenodd" stroke="none" />
          <path d="M39.7577 48.1131C51.5454 46.0137 57.4045 35.6027 52.8443 24.8595C48.2841 14.1162 35.0314 7.10907 23.2437 9.20849C11.4559 11.3079 5.59683 21.7189 10.1571 32.4621C14.7173 43.2053 27.9699 50.2125 39.7577 48.1131Z" id="Oval-3" fill="#E73453" fill-rule="evenodd" stroke="none" />
        </g>
      </g>
      <g filter="url(#filter_2)">
        <g id="Oval-Copy-2" transform="matrix(0.9563048 -0.2923717 0.2923717 0.9563048 410.80875 106.03469)">
          <path d="M38.8622 53.2879C50.4221 50.1691 55.3515 39.2871 49.8723 28.9822C44.3931 18.6773 30.5802 12.8519 19.0202 15.9707C7.46033 19.0895 2.53093 29.9715 8.01013 40.2764C13.4893 50.5813 27.3023 56.4067 38.8622 53.2879Z" id="Oval-3-Copy" fill="#B74256" fill-rule="evenodd" stroke="none" />
          <path d="M39.7577 48.1131C51.5454 46.0137 57.4045 35.6027 52.8443 24.8595C48.2841 14.1162 35.0314 7.10907 23.2437 9.20849C11.4559 11.3079 5.59683 21.7189 10.1571 32.4621C14.7173 43.2053 27.9699 50.2125 39.7577 48.1131Z" id="Oval-3" fill="url(#gradient_2)" fill-rule="evenodd" stroke="none" />
        </g>
      </g>
      <g filter="url(#filter_2)">
        <g id="Group-3" transform="translate(-5.684342E-13 296.11893)">
          <path d="M15.5788 46.6094L55.3432 18.766Q55.7253 18.4985 56.12 18.2501Q56.5147 18.0016 56.9212 17.7728Q57.3276 17.5441 57.7447 17.3355Q58.1619 17.1269 58.5888 16.9391Q59.0157 16.7512 59.4513 16.5846Q59.8869 16.4179 60.3302 16.2728Q60.7734 16.1277 61.2233 16.0046Q61.6731 15.8814 62.1285 15.7804Q62.5838 15.6795 63.0436 15.601Q63.5033 15.5225 63.9664 15.4667Q64.4294 15.4109 64.8946 15.3778Q65.3599 15.3448 65.8261 15.3346Q66.2924 15.3244 66.7587 15.3372Q67.2249 15.3499 67.6899 15.3855Q68.155 15.421 68.6177 15.4794Q69.0804 15.5377 69.5397 15.6187Q69.9991 15.6997 70.4538 15.8032Q70.9086 15.9066 71.3578 16.0322Q71.807 16.1578 72.2494 16.3053Q72.6919 16.4528 73.1266 16.6219Q73.5613 16.7909 73.9871 16.9811Q74.413 17.1712 74.829 17.3821Q75.245 17.5929 75.6502 17.8239Q76.0554 18.0549 76.4488 18.3055Q76.8421 18.5561 77.2227 18.8257Q77.6033 19.0953 77.9702 19.3832Q78.3371 19.6712 78.6894 19.9768Q79.0417 20.2824 79.3787 20.6049Q79.7156 20.9274 80.0363 21.2661Q80.3569 21.6048 80.6606 21.9587Q80.9643 22.3127 81.2502 22.6812Q81.5362 23.0497 81.8037 23.4317L84.2508 26.9266Q84.5183 27.3086 84.7668 27.7033Q85.0152 28.098 85.244 28.5045Q85.4728 28.9109 85.6813 29.3281Q85.8899 29.7452 86.0777 30.1721Q86.2656 30.599 86.4322 31.0347Q86.5989 31.4703 86.744 31.9135Q86.8891 32.3568 87.0122 32.8066Q87.1354 33.2565 87.2364 33.7118Q87.3373 34.1671 87.4158 34.6269Q87.4943 35.0866 87.5501 35.5497Q87.6059 36.0127 87.639 36.478Q87.672 36.9432 87.6822 37.4095Q87.6924 37.8758 87.6796 38.342Q87.6669 38.8082 87.6314 39.2733Q87.5958 39.7383 87.5374 40.201Q87.4791 40.6638 87.3981 41.1231Q87.3171 41.5824 87.2137 42.0372Q87.1102 42.492 86.9846 42.9411Q86.859 43.3903 86.7115 43.8327Q86.564 44.2752 86.3949 44.7099Q86.2259 45.1446 86.0357 45.5704Q85.8456 45.9963 85.6347 46.4123Q85.4239 46.8284 85.1929 47.2335Q84.9619 47.6387 84.7113 48.0321Q84.4607 48.4254 84.1911 48.806Q83.9215 49.1866 83.6336 49.5535Q83.3456 49.9204 83.04 50.2727Q82.7344 50.6251 82.4119 50.962Q82.0894 51.2989 81.7507 51.6196Q81.4121 51.9403 81.0581 52.2439Q80.7041 52.5476 80.3356 52.8335Q79.9671 53.1195 79.5851 53.387L39.8207 81.2304Q39.4386 81.4979 39.0439 81.7463Q38.6492 81.9948 38.2427 82.2235Q37.8363 82.4523 37.4191 82.6609Q37.002 82.8694 36.5751 83.0573Q36.1482 83.2451 35.7126 83.4118Q35.277 83.5785 34.8337 83.7236Q34.3905 83.8686 33.9406 83.9918Q33.4908 84.115 33.0354 84.2159Q32.5801 84.3169 32.1203 84.3954Q31.6606 84.4738 31.1975 84.5297Q30.7345 84.5855 30.2693 84.6185Q29.804 84.6516 29.3377 84.6618Q28.8715 84.6719 28.4052 84.6592Q27.939 84.6465 27.474 84.6109Q27.0089 84.5753 26.5462 84.517Q26.0835 84.4586 25.6241 84.3776Q25.1648 84.2967 24.71 84.1932Q24.2553 84.0898 23.8061 83.9642Q23.3569 83.8386 22.9145 83.691Q22.472 83.5435 22.0373 83.3745Q21.6026 83.2055 21.1768 83.0153Q20.7509 82.8251 20.3349 82.6143Q19.9188 82.4035 19.5137 82.1725Q19.1085 81.9415 18.7151 81.6909Q18.3218 81.4403 17.9412 81.1707Q17.5606 80.9011 17.1937 80.6131Q16.8268 80.3252 16.4745 80.0196Q16.1221 79.714 15.7852 79.3915Q15.4483 79.0689 15.1276 78.7303Q14.807 78.3916 14.5033 78.0376Q14.1996 77.6837 13.9137 77.3152Q13.6277 76.9467 13.3602 76.5647L10.9131 73.0698Q10.6456 72.6878 10.3971 72.2931Q10.1487 71.8983 9.91992 71.4919Q9.69114 71.0855 9.48257 70.6683Q9.27401 70.2511 9.08617 69.8242Q8.89833 69.3973 8.73166 68.9617Q8.565 68.5261 8.4199 68.0829Q8.27481 67.6396 8.15164 67.1898Q8.02847 66.7399 7.92753 66.2846Q7.82658 65.8292 7.7481 65.3695Q7.66962 64.9098 7.61379 64.4467Q7.55796 63.9837 7.52491 63.5184Q7.49187 63.0532 7.4817 62.5869Q7.47152 62.1206 7.48424 61.6544Q7.49696 61.1882 7.53254 60.7231Q7.56812 60.2581 7.62647 59.7954Q7.68482 59.3326 7.76581 58.8733Q7.8468 58.414 7.95023 57.9592Q8.05366 57.5044 8.17928 57.0553Q8.3049 56.6061 8.45241 56.1636Q8.59992 55.7212 8.76896 55.2865Q8.938 54.8518 9.12816 54.4259Q9.31833 54.0001 9.52917 53.584Q9.74 53.168 9.97099 52.7628Q10.202 52.3576 10.4526 51.9643Q10.7032 51.5709 10.9728 51.1903Q11.2424 50.8098 11.5303 50.4429Q11.8183 50.076 12.1239 49.7236Q12.4295 49.3713 12.752 49.0344Q13.0745 48.6975 13.4132 48.3768Q13.7518 48.0561 14.1058 47.7524Q14.4598 47.4488 14.8283 47.1628Q15.1967 46.8769 15.5788 46.6094Z" id="Rectangle-3-Copy" fill="#B74256" fill-rule="evenodd" stroke="none" />
          <path d="M16.6354 39.2131L56.3998 11.3698Q56.7819 11.1022 57.1766 10.8538Q57.5713 10.6053 57.9778 10.3766Q58.3842 10.1478 58.8014 9.93922Q59.2185 9.73066 59.6454 9.54282Q60.0723 9.35498 60.5079 9.18831Q60.9435 9.02164 61.3868 8.87655Q61.8301 8.73146 62.2799 8.60829Q62.7297 8.48512 63.1851 8.38417Q63.6404 8.28323 64.1002 8.20474Q64.5599 8.12626 65.023 8.07043Q65.486 8.0146 65.9512 7.98156Q66.4165 7.94852 66.8828 7.93834Q67.349 7.92817 67.8153 7.94089Q68.2815 7.9536 68.7465 7.98918Q69.2116 8.02476 69.6743 8.08311Q70.137 8.14147 70.5964 8.22246Q71.0557 8.30345 71.5105 8.40688Q71.9652 8.51031 72.4144 8.63593Q72.8636 8.76155 73.306 8.90906Q73.7485 9.05656 74.1832 9.2256Q74.6179 9.39464 75.0437 9.58481Q75.4696 9.77498 75.8856 9.98581Q76.3017 10.1966 76.7068 10.4276Q77.112 10.6586 77.5054 10.9092Q77.8987 11.1598 78.2793 11.4294Q78.6599 11.699 79.0268 11.987Q79.3937 12.2749 79.746 12.5805Q80.0984 12.8861 80.4353 13.2086Q80.7722 13.5311 81.0929 13.8698Q81.4135 14.2085 81.7172 14.5625Q82.0209 14.9165 82.3068 15.2849Q82.5928 15.6534 82.8603 16.0354L85.3074 19.5303Q85.5749 19.9123 85.8234 20.307Q86.0718 20.7018 86.3006 21.1082Q86.5294 21.5146 86.7379 21.9318Q86.9465 22.349 87.1343 22.7759Q87.3222 23.2028 87.4888 23.6384Q87.6555 24.074 87.8006 24.5172Q87.9457 24.9605 88.0689 25.4103Q88.192 25.8602 88.293 26.3155Q88.3939 26.7709 88.4724 27.2306Q88.5509 27.6904 88.6067 28.1534Q88.6625 28.6165 88.6956 29.0817Q88.7286 29.5469 88.7388 30.0132Q88.749 30.4795 88.7363 30.9457Q88.7236 31.4119 88.688 31.877Q88.6524 32.342 88.594 32.8048Q88.5357 33.2675 88.4547 33.7268Q88.3737 34.1861 88.2703 34.6409Q88.1669 35.0957 88.0412 35.5449Q87.9156 35.994 87.7681 36.4365Q87.6206 36.8789 87.4515 37.3136Q87.2825 37.7483 87.0923 38.1742Q86.9022 38.6 86.6913 39.0161Q86.4805 39.4321 86.2495 39.8373Q86.0185 40.2425 85.7679 40.6358Q85.5173 41.0292 85.2477 41.4098Q84.9781 41.7903 84.6902 42.1572Q84.4022 42.5241 84.0966 42.8765Q83.791 43.2288 83.4685 43.5657Q83.146 43.9026 82.8073 44.2233Q82.4687 44.544 82.1147 44.8477Q81.7607 45.1513 81.3922 45.4373Q81.0238 45.7232 80.6417 45.9907L40.8773 73.8341Q40.4952 74.1016 40.1005 74.35Q39.7058 74.5985 39.2994 74.8273Q38.8929 75.0561 38.4757 75.2646Q38.0586 75.4732 37.6317 75.661Q37.2048 75.8489 36.7692 76.0155Q36.3336 76.1822 35.8903 76.3273Q35.4471 76.4724 34.9972 76.5955Q34.5474 76.7187 34.092 76.8197Q33.6367 76.9206 33.1769 76.9991Q32.7172 77.0776 32.2542 77.1334Q31.7911 77.1892 31.3259 77.2223Q30.8606 77.2553 30.3944 77.2655Q29.9281 77.2757 29.4618 77.2629Q28.9956 77.2502 28.5306 77.2147Q28.0655 77.1791 27.6028 77.1207Q27.1401 77.0624 26.6808 76.9814Q26.2214 76.9004 25.7667 76.797Q25.3119 76.6935 24.8627 76.5679Q24.4135 76.4423 23.9711 76.2948Q23.5286 76.1473 23.0939 75.9782Q22.6592 75.8092 22.2334 75.619Q21.8075 75.4289 21.3915 75.218Q20.9755 75.0072 20.5703 74.7762Q20.1651 74.5452 19.7717 74.2946Q19.3784 74.044 18.9978 73.7744Q18.6172 73.5048 18.2503 73.2169Q17.8834 72.9289 17.5311 72.6233Q17.1787 72.3177 16.8418 71.9952Q16.5049 71.6727 16.1843 71.334Q15.8636 70.9953 15.5599 70.6414Q15.2562 70.2874 14.9703 69.9189Q14.6843 69.5504 14.4168 69.1684L11.9697 65.6736Q11.7022 65.2915 11.4538 64.8968Q11.2053 64.5021 10.9765 64.0956Q10.7477 63.6892 10.5392 63.272Q10.3306 62.8549 10.1428 62.428Q9.95494 62.001 9.78828 61.5655Q9.62161 61.1298 9.47652 60.6866Q9.33142 60.2433 9.20825 59.7935Q9.08509 59.3436 8.98414 58.8883Q8.88319 58.433 8.80471 57.9732Q8.72623 57.5135 8.6704 57.0504Q8.61457 56.5874 8.58152 56.1221Q8.54848 55.6569 8.53831 55.1906Q8.52813 54.7243 8.54085 54.2581Q8.55357 53.7919 8.58915 53.3269Q8.62473 52.8618 8.68308 52.3991Q8.74143 51.9363 8.82242 51.477Q8.90341 51.0177 9.00684 50.5629Q9.11027 50.1081 9.23589 49.659Q9.36151 49.2098 9.50902 48.7674Q9.65653 48.3249 9.82557 47.8902Q9.99461 47.4555 10.1848 47.0297Q10.3749 46.6038 10.5858 46.1878Q10.7966 45.7717 11.0276 45.3666Q11.2586 44.9614 11.5092 44.568Q11.7598 44.1747 12.0294 43.7941Q12.299 43.4135 12.5869 43.0466Q12.8749 42.6797 13.1805 42.3274Q13.4861 41.975 13.8086 41.6381Q14.1311 41.3012 14.4698 40.9805Q14.8084 40.6598 15.1624 40.3562Q15.5164 40.0525 15.8849 39.7666Q16.2534 39.4806 16.6354 39.2131Z" id="Rectangle-3" fill="#E73453" fill-rule="evenodd" stroke="none" />
        </g>
      </g>
      <g filter="url(#filter_2)">
        <g id="Group-3-Copy-2" transform="translate(401.51187 179.8918)">
          <path d="M15.5788 46.6094L55.3432 18.766Q55.7253 18.4985 56.12 18.2501Q56.5147 18.0016 56.9212 17.7728Q57.3276 17.5441 57.7447 17.3355Q58.1619 17.1269 58.5888 16.9391Q59.0157 16.7512 59.4513 16.5846Q59.8869 16.4179 60.3302 16.2728Q60.7734 16.1277 61.2233 16.0046Q61.6731 15.8814 62.1285 15.7804Q62.5838 15.6795 63.0436 15.601Q63.5033 15.5225 63.9664 15.4667Q64.4294 15.4109 64.8946 15.3778Q65.3599 15.3448 65.8261 15.3346Q66.2924 15.3244 66.7587 15.3372Q67.2249 15.3499 67.6899 15.3855Q68.155 15.421 68.6177 15.4794Q69.0804 15.5377 69.5397 15.6187Q69.9991 15.6997 70.4538 15.8032Q70.9086 15.9066 71.3578 16.0322Q71.807 16.1578 72.2494 16.3053Q72.6919 16.4528 73.1266 16.6219Q73.5613 16.7909 73.9871 16.9811Q74.413 17.1712 74.829 17.3821Q75.245 17.5929 75.6502 17.8239Q76.0554 18.0549 76.4488 18.3055Q76.8421 18.5561 77.2227 18.8257Q77.6033 19.0953 77.9702 19.3832Q78.3371 19.6712 78.6894 19.9768Q79.0417 20.2824 79.3787 20.6049Q79.7156 20.9274 80.0363 21.2661Q80.3569 21.6048 80.6606 21.9587Q80.9643 22.3127 81.2502 22.6812Q81.5362 23.0497 81.8037 23.4317L84.2508 26.9266Q84.5183 27.3086 84.7668 27.7033Q85.0152 28.098 85.244 28.5045Q85.4728 28.9109 85.6813 29.3281Q85.8899 29.7452 86.0777 30.1721Q86.2656 30.599 86.4322 31.0347Q86.5989 31.4703 86.744 31.9135Q86.8891 32.3568 87.0122 32.8066Q87.1354 33.2565 87.2364 33.7118Q87.3373 34.1671 87.4158 34.6269Q87.4943 35.0866 87.5501 35.5497Q87.6059 36.0127 87.639 36.478Q87.672 36.9432 87.6822 37.4095Q87.6924 37.8758 87.6796 38.342Q87.6669 38.8082 87.6314 39.2733Q87.5958 39.7383 87.5374 40.201Q87.4791 40.6638 87.3981 41.1231Q87.3171 41.5824 87.2137 42.0372Q87.1102 42.492 86.9846 42.9411Q86.859 43.3903 86.7115 43.8327Q86.564 44.2752 86.3949 44.7099Q86.2259 45.1446 86.0357 45.5704Q85.8456 45.9963 85.6347 46.4123Q85.4239 46.8284 85.1929 47.2335Q84.9619 47.6387 84.7113 48.0321Q84.4607 48.4254 84.1911 48.806Q83.9215 49.1866 83.6336 49.5535Q83.3456 49.9204 83.04 50.2727Q82.7344 50.6251 82.4119 50.962Q82.0894 51.2989 81.7507 51.6196Q81.4121 51.9403 81.0581 52.2439Q80.7041 52.5476 80.3356 52.8335Q79.9671 53.1195 79.5851 53.387L39.8207 81.2304Q39.4386 81.4979 39.0439 81.7463Q38.6492 81.9948 38.2427 82.2235Q37.8363 82.4523 37.4191 82.6609Q37.002 82.8694 36.5751 83.0573Q36.1482 83.2451 35.7126 83.4118Q35.277 83.5785 34.8337 83.7236Q34.3905 83.8686 33.9406 83.9918Q33.4908 84.115 33.0354 84.2159Q32.5801 84.3169 32.1203 84.3954Q31.6606 84.4738 31.1975 84.5297Q30.7345 84.5855 30.2693 84.6185Q29.804 84.6516 29.3377 84.6618Q28.8715 84.6719 28.4052 84.6592Q27.939 84.6465 27.474 84.6109Q27.0089 84.5753 26.5462 84.517Q26.0835 84.4586 25.6241 84.3776Q25.1648 84.2967 24.71 84.1932Q24.2553 84.0898 23.8061 83.9642Q23.3569 83.8386 22.9145 83.691Q22.472 83.5435 22.0373 83.3745Q21.6026 83.2055 21.1768 83.0153Q20.7509 82.8251 20.3349 82.6143Q19.9188 82.4035 19.5137 82.1725Q19.1085 81.9415 18.7151 81.6909Q18.3218 81.4403 17.9412 81.1707Q17.5606 80.9011 17.1937 80.6131Q16.8268 80.3252 16.4745 80.0196Q16.1221 79.714 15.7852 79.3915Q15.4483 79.0689 15.1276 78.7303Q14.807 78.3916 14.5033 78.0376Q14.1996 77.6837 13.9137 77.3152Q13.6277 76.9467 13.3602 76.5647L10.9131 73.0698Q10.6456 72.6878 10.3971 72.2931Q10.1487 71.8983 9.91992 71.4919Q9.69114 71.0855 9.48257 70.6683Q9.27401 70.2511 9.08617 69.8242Q8.89833 69.3973 8.73166 68.9617Q8.565 68.5261 8.4199 68.0829Q8.27481 67.6396 8.15164 67.1898Q8.02847 66.7399 7.92753 66.2846Q7.82658 65.8292 7.7481 65.3695Q7.66962 64.9098 7.61379 64.4467Q7.55796 63.9837 7.52491 63.5184Q7.49187 63.0532 7.4817 62.5869Q7.47152 62.1206 7.48424 61.6544Q7.49696 61.1882 7.53254 60.7231Q7.56812 60.2581 7.62647 59.7954Q7.68482 59.3326 7.76581 58.8733Q7.8468 58.414 7.95023 57.9592Q8.05366 57.5044 8.17928 57.0553Q8.3049 56.6061 8.45241 56.1636Q8.59992 55.7212 8.76896 55.2865Q8.938 54.8518 9.12816 54.4259Q9.31833 54.0001 9.52917 53.584Q9.74 53.168 9.97099 52.7628Q10.202 52.3576 10.4526 51.9643Q10.7032 51.5709 10.9728 51.1903Q11.2424 50.8098 11.5303 50.4429Q11.8183 50.076 12.1239 49.7236Q12.4295 49.3713 12.752 49.0344Q13.0745 48.6975 13.4132 48.3768Q13.7518 48.0561 14.1058 47.7524Q14.4598 47.4488 14.8283 47.1628Q15.1967 46.8769 15.5788 46.6094Z" id="Rectangle-3-Copy" fill="#B74256" fill-rule="evenodd" stroke="none" />
          <path d="M16.6354 39.2131L56.3998 11.3698Q56.7819 11.1022 57.1766 10.8538Q57.5713 10.6053 57.9778 10.3766Q58.3842 10.1478 58.8014 9.93922Q59.2185 9.73066 59.6454 9.54282Q60.0723 9.35498 60.5079 9.18831Q60.9435 9.02164 61.3868 8.87655Q61.8301 8.73146 62.2799 8.60829Q62.7297 8.48512 63.1851 8.38417Q63.6404 8.28323 64.1002 8.20474Q64.5599 8.12626 65.023 8.07043Q65.486 8.0146 65.9512 7.98156Q66.4165 7.94852 66.8828 7.93834Q67.349 7.92817 67.8153 7.94089Q68.2815 7.9536 68.7465 7.98918Q69.2116 8.02476 69.6743 8.08311Q70.137 8.14147 70.5964 8.22246Q71.0557 8.30345 71.5105 8.40688Q71.9652 8.51031 72.4144 8.63593Q72.8636 8.76155 73.306 8.90906Q73.7485 9.05656 74.1832 9.2256Q74.6179 9.39464 75.0437 9.58481Q75.4696 9.77498 75.8856 9.98581Q76.3017 10.1966 76.7068 10.4276Q77.112 10.6586 77.5054 10.9092Q77.8987 11.1598 78.2793 11.4294Q78.6599 11.699 79.0268 11.987Q79.3937 12.2749 79.746 12.5805Q80.0984 12.8861 80.4353 13.2086Q80.7722 13.5311 81.0929 13.8698Q81.4135 14.2085 81.7172 14.5625Q82.0209 14.9165 82.3068 15.2849Q82.5928 15.6534 82.8603 16.0354L85.3074 19.5303Q85.5749 19.9123 85.8234 20.307Q86.0718 20.7018 86.3006 21.1082Q86.5294 21.5146 86.7379 21.9318Q86.9465 22.349 87.1343 22.7759Q87.3222 23.2028 87.4888 23.6384Q87.6555 24.074 87.8006 24.5172Q87.9457 24.9605 88.0689 25.4103Q88.192 25.8602 88.293 26.3155Q88.3939 26.7709 88.4724 27.2306Q88.5509 27.6904 88.6067 28.1534Q88.6625 28.6165 88.6956 29.0817Q88.7286 29.5469 88.7388 30.0132Q88.749 30.4795 88.7363 30.9457Q88.7236 31.4119 88.688 31.877Q88.6524 32.342 88.594 32.8048Q88.5357 33.2675 88.4547 33.7268Q88.3737 34.1861 88.2703 34.6409Q88.1669 35.0957 88.0412 35.5449Q87.9156 35.994 87.7681 36.4365Q87.6206 36.8789 87.4515 37.3136Q87.2825 37.7483 87.0923 38.1742Q86.9022 38.6 86.6913 39.0161Q86.4805 39.4321 86.2495 39.8373Q86.0185 40.2425 85.7679 40.6358Q85.5173 41.0292 85.2477 41.4098Q84.9781 41.7903 84.6902 42.1572Q84.4022 42.5241 84.0966 42.8765Q83.791 43.2288 83.4685 43.5657Q83.146 43.9026 82.8073 44.2233Q82.4687 44.544 82.1147 44.8477Q81.7607 45.1513 81.3922 45.4373Q81.0238 45.7232 80.6417 45.9907L40.8773 73.8341Q40.4952 74.1016 40.1005 74.35Q39.7058 74.5985 39.2994 74.8273Q38.8929 75.0561 38.4757 75.2646Q38.0586 75.4732 37.6317 75.661Q37.2048 75.8489 36.7692 76.0155Q36.3336 76.1822 35.8903 76.3273Q35.4471 76.4724 34.9972 76.5955Q34.5474 76.7187 34.092 76.8197Q33.6367 76.9206 33.1769 76.9991Q32.7172 77.0776 32.2542 77.1334Q31.7911 77.1892 31.3259 77.2223Q30.8606 77.2553 30.3944 77.2655Q29.9281 77.2757 29.4618 77.2629Q28.9956 77.2502 28.5306 77.2147Q28.0655 77.1791 27.6028 77.1207Q27.1401 77.0624 26.6808 76.9814Q26.2214 76.9004 25.7667 76.797Q25.3119 76.6935 24.8627 76.5679Q24.4135 76.4423 23.9711 76.2948Q23.5286 76.1473 23.0939 75.9782Q22.6592 75.8092 22.2334 75.619Q21.8075 75.4289 21.3915 75.218Q20.9755 75.0072 20.5703 74.7762Q20.1651 74.5452 19.7717 74.2946Q19.3784 74.044 18.9978 73.7744Q18.6172 73.5048 18.2503 73.2169Q17.8834 72.9289 17.5311 72.6233Q17.1787 72.3177 16.8418 71.9952Q16.5049 71.6727 16.1843 71.334Q15.8636 70.9953 15.5599 70.6414Q15.2562 70.2874 14.9703 69.9189Q14.6843 69.5504 14.4168 69.1684L11.9697 65.6736Q11.7022 65.2915 11.4538 64.8968Q11.2053 64.5021 10.9765 64.0956Q10.7477 63.6892 10.5392 63.272Q10.3306 62.8549 10.1428 62.428Q9.95494 62.001 9.78828 61.5655Q9.62161 61.1298 9.47652 60.6866Q9.33142 60.2433 9.20825 59.7935Q9.08509 59.3436 8.98414 58.8883Q8.88319 58.433 8.80471 57.9732Q8.72623 57.5135 8.6704 57.0504Q8.61457 56.5874 8.58152 56.1221Q8.54848 55.6569 8.53831 55.1906Q8.52813 54.7243 8.54085 54.2581Q8.55357 53.7919 8.58915 53.3269Q8.62473 52.8618 8.68308 52.3991Q8.74143 51.9363 8.82242 51.477Q8.90341 51.0177 9.00684 50.5629Q9.11027 50.1081 9.23589 49.659Q9.36151 49.2098 9.50902 48.7674Q9.65653 48.3249 9.82557 47.8902Q9.99461 47.4555 10.1848 47.0297Q10.3749 46.6038 10.5858 46.1878Q10.7966 45.7717 11.0276 45.3666Q11.2586 44.9614 11.5092 44.568Q11.7598 44.1747 12.0294 43.7941Q12.299 43.4135 12.5869 43.0466Q12.8749 42.6797 13.1805 42.3274Q13.4861 41.975 13.8086 41.6381Q14.1311 41.3012 14.4698 40.9805Q14.8084 40.6598 15.1624 40.3562Q15.5164 40.0525 15.8849 39.7666Q16.2534 39.4806 16.6354 39.2131Z" id="Rectangle-3" fill="url(#gradient_3)" fill-rule="evenodd" stroke="none" />
        </g>
      </g>
      <g filter="url(#filter_2)">
        <g id="Group-3-Copy" transform="translate(233.51085 324.6474)">
          <path d="M10.1679 51.0228L63.7496 13.5045Q63.9924 13.3345 64.2433 13.1766Q64.4942 13.0187 64.7525 12.8733Q65.0108 12.7279 65.2759 12.5954Q65.541 12.4628 65.8123 12.3434Q66.0836 12.2241 66.3605 12.1181Q66.6373 12.0122 66.919 11.92Q67.2007 11.8278 67.4866 11.7495Q67.7725 11.6712 68.0619 11.6071Q68.3513 11.5429 68.6435 11.493Q68.9357 11.4432 69.2299 11.4077Q69.5242 11.3722 69.8199 11.3512Q70.1155 11.3302 70.4119 11.3237Q70.7082 11.3173 71.0045 11.3253Q71.3008 11.3334 71.5964 11.356Q71.892 11.3787 72.186 11.4157Q72.4801 11.4528 72.772 11.5043Q73.0639 11.5558 73.353 11.6215Q73.642 11.6872 73.9275 11.7671Q74.2129 11.8469 74.4941 11.9406Q74.7753 12.0344 75.0516 12.1418Q75.3278 12.2493 75.5985 12.3701Q75.8691 12.491 76.1335 12.625Q76.3979 12.759 76.6554 12.9058Q76.913 13.0526 77.1629 13.2118Q77.4129 13.3711 77.6548 13.5424Q77.8967 13.7138 78.1299 13.8968Q78.3631 14.0798 78.587 14.274Q78.8109 14.4682 79.025 14.6732Q79.2391 14.8782 79.4429 15.0934Q79.6467 15.3086 79.8397 15.5336Q80.0327 15.7586 80.2144 15.9927Q80.3962 16.2269 80.5662 16.4697L80.5673 16.4714Q80.7374 16.7142 80.8952 16.965Q81.0531 17.2159 81.1985 17.4742Q81.3439 17.7325 81.4765 17.9976Q81.609 18.2627 81.7284 18.5341Q81.8478 18.8054 81.9537 19.0822Q82.0596 19.3591 82.1518 19.6408Q82.2441 19.9225 82.3223 20.2084Q82.4006 20.4942 82.4648 20.7836Q82.5289 21.073 82.5788 21.3652Q82.6287 21.6574 82.6642 21.9517Q82.6996 22.246 82.7206 22.5416Q82.7416 22.8373 82.7481 23.1336Q82.7546 23.43 82.7465 23.7263Q82.7384 24.0226 82.7158 24.3181Q82.6932 24.6137 82.6561 24.9078Q82.619 25.2018 82.5676 25.4938Q82.5161 25.7857 82.4503 26.0747Q82.3846 26.3637 82.3048 26.6492Q82.2249 26.9347 82.1312 27.2159Q82.0374 27.4971 81.93 27.7733Q81.8226 28.0496 81.7017 28.3202Q81.5809 28.5909 81.4469 28.8553Q81.3129 29.1197 81.1661 29.3772Q81.0193 29.6347 80.86 29.8847Q80.7007 30.1347 80.5294 30.3766Q80.3581 30.6184 80.1751 30.8516Q79.9921 31.0848 79.7979 31.3087Q79.6036 31.5326 79.3987 31.7467Q79.1937 31.9609 78.9784 32.1647Q78.7632 32.3685 78.5382 32.5615Q78.3133 32.7545 78.0791 32.9362Q77.8449 33.1179 77.6021 33.2879L24.0204 70.8063Q23.7776 70.9763 23.5267 71.1342Q23.2759 71.2921 23.0176 71.4375Q22.7593 71.5828 22.4941 71.7154Q22.229 71.8479 21.9577 71.9673Q21.6864 72.0867 21.4096 72.1926Q21.1327 72.2985 20.851 72.3908Q20.5693 72.483 20.2834 72.5612Q19.9975 72.6395 19.7081 72.7037Q19.4187 72.7678 19.1266 72.8177Q18.8344 72.8676 18.5401 72.9031Q18.2458 72.9386 17.9501 72.9596Q17.6545 72.9806 17.3581 72.987Q17.0618 72.9935 16.7655 72.9854Q16.4692 72.9773 16.1736 72.9547Q15.8781 72.9321 15.584 72.895Q15.2899 72.8579 14.998 72.8065Q14.7061 72.755 14.4171 72.6893Q14.128 72.6235 13.8426 72.5437Q13.5571 72.4639 13.2759 72.3701Q12.9947 72.2764 12.7185 72.1689Q12.4422 72.0615 12.1715 71.9406Q11.9009 71.8198 11.6365 71.6858Q11.3721 71.5518 11.1146 71.405Q10.8571 71.2582 10.6071 71.0989Q10.3571 70.9397 10.1152 70.7683Q9.87333 70.597 9.64016 70.414Q9.40698 70.231 9.18306 70.0368Q8.95914 69.8426 8.74502 69.6376Q8.5309 69.4326 8.3271 69.2174Q8.1233 69.0021 7.9303 68.7772Q7.73731 68.5522 7.55558 68.318Q7.37386 68.0838 7.20384 67.841L7.20269 67.8394Q7.03268 67.5966 6.87478 67.3457Q6.71688 67.0949 6.57149 66.8366Q6.42609 66.5783 6.29354 66.3131Q6.16099 66.048 6.04161 65.7767Q5.92223 65.5054 5.81631 65.2286Q5.71039 64.9517 5.61817 64.67Q5.52596 64.3883 5.44768 64.1024Q5.36941 63.8165 5.30525 63.5271Q5.24109 63.2377 5.19122 62.9456Q5.14134 62.6534 5.10586 62.3591Q5.07037 62.0648 5.04937 61.7691Q5.02838 61.4735 5.02191 61.1771Q5.01544 60.8808 5.02353 60.5845Q5.03161 60.2882 5.05422 59.9926Q5.07683 59.6971 5.11392 59.403Q5.151 59.1089 5.20248 58.817Q5.25395 58.5251 5.31968 58.2361Q5.38541 57.947 5.46525 57.6616Q5.54508 57.3761 5.63883 57.0949Q5.73258 56.8137 5.84001 56.5374Q5.94744 56.2612 6.0683 55.9905Q6.18916 55.7199 6.32315 55.4555Q6.45714 55.1911 6.60395 54.9336Q6.75075 54.6761 6.91001 54.4261Q7.06927 54.1761 7.24061 53.9342Q7.41195 53.6923 7.59495 53.4592Q7.77795 53.226 7.97217 53.0021Q8.16639 52.7781 8.37136 52.564Q8.57634 52.3499 8.79157 52.1461Q9.0068 51.9423 9.23178 51.7493Q9.45675 51.5563 9.69093 51.3746Q9.9251 51.1929 10.1679 51.0228L10.1679 51.0228Z" id="Rectangle-3-Copy" fill="#B74256" fill-rule="evenodd" stroke="none" />
          <path d="M11.2245 44.6832L64.8062 7.16485Q65.049 6.99483 65.2999 6.83694Q65.5508 6.67904 65.8091 6.53364Q66.0674 6.38824 66.3325 6.25569Q66.5976 6.12315 66.8689 6.00377Q67.1402 5.88439 67.4171 5.77846Q67.6939 5.67254 67.9756 5.58033Q68.2573 5.48812 68.5432 5.40984Q68.8291 5.33156 69.1185 5.26741Q69.4079 5.20325 69.7001 5.15337Q69.9923 5.10349 70.2865 5.06801Q70.5808 5.03253 70.8765 5.01153Q71.1721 4.99053 71.4685 4.98406Q71.7648 4.9776 72.0611 4.98568Q72.3575 4.99376 72.653 5.01638Q72.9485 5.03899 73.2426 5.07607Q73.5367 5.11316 73.8286 5.16463Q74.1205 5.2161 74.4096 5.28184Q74.6986 5.34757 74.9841 5.4274Q75.2695 5.50724 75.5507 5.60099Q75.8319 5.69473 76.1082 5.80216Q76.3844 5.9096 76.6551 6.03045Q76.9258 6.15131 77.1902 6.2853Q77.4546 6.4193 77.7121 6.5661Q77.9696 6.7129 78.2196 6.87217Q78.4696 7.03143 78.7114 7.20277Q78.9533 7.37411 79.1865 7.55711Q79.4197 7.74011 79.6436 7.93433Q79.8675 8.12855 80.0816 8.33352Q80.2957 8.53849 80.4995 8.75373Q80.7033 8.96896 80.8963 9.19394Q81.0893 9.41891 81.2711 9.65308Q81.4528 9.88725 81.6228 10.1301L81.6239 10.1317Q81.794 10.3745 81.9519 10.6254Q82.1097 10.8762 82.2552 11.1345Q82.4005 11.3928 82.5331 11.658Q82.6656 11.9231 82.785 12.1944Q82.9044 12.4657 83.0103 12.7425Q83.1162 13.0194 83.2085 13.3011Q83.3007 13.5828 83.379 13.8687Q83.4572 14.1546 83.5214 14.444Q83.5855 14.7334 83.6354 15.0255Q83.6853 15.3177 83.7208 15.612Q83.7563 15.9063 83.7773 16.202Q83.7983 16.4976 83.8047 16.794Q83.8112 17.0903 83.8031 17.3866Q83.795 17.6829 83.7724 17.9785Q83.7498 18.274 83.7127 18.5681Q83.6756 18.8622 83.6242 19.1541Q83.5727 19.446 83.5069 19.735Q83.4412 20.0241 83.3614 20.3095Q83.2815 20.595 83.1878 20.8762Q83.094 21.1574 82.9866 21.4336Q82.8792 21.7099 82.7583 21.9806Q82.6375 22.2512 82.5035 22.5156Q82.3695 22.78 82.2227 23.0375Q82.0759 23.295 81.9166 23.545Q81.7573 23.795 81.586 24.0369Q81.4147 24.2788 81.2317 24.5119Q81.0487 24.7451 80.8545 24.969Q80.6602 25.193 80.4553 25.4071Q80.2503 25.6212 80.0351 25.825Q79.8198 26.0288 79.5949 26.2218Q79.3699 26.4148 79.1357 26.5965Q78.9015 26.7782 78.6587 26.9483L25.077 64.4666Q24.8342 64.6366 24.5833 64.7945Q24.3325 64.9524 24.0742 65.0978Q23.8159 65.2432 23.5508 65.3758Q23.2856 65.5083 23.0143 65.6277Q22.743 65.7471 22.4662 65.853Q22.1893 65.9589 21.9076 66.0511Q21.6259 66.1433 21.34 66.2216Q21.0541 66.2999 20.7647 66.364Q20.4754 66.4282 20.1832 66.4781Q19.891 66.5279 19.5967 66.5634Q19.3024 66.5989 19.0068 66.6199Q18.7111 66.6409 18.4147 66.6474Q18.1184 66.6538 17.8221 66.6458Q17.5258 66.6377 17.2302 66.6151Q16.9347 66.5925 16.6406 66.5554Q16.3465 66.5183 16.0546 66.4668Q15.7627 66.4153 15.4737 66.3496Q15.1846 66.2839 14.8992 66.204Q14.6137 66.1242 14.3325 66.0304Q14.0513 65.9367 13.7751 65.8293Q13.4988 65.7218 13.2281 65.601Q12.9575 65.4801 12.6931 65.3461Q12.4287 65.2121 12.1712 65.0653Q11.9137 64.9185 11.6637 64.7593Q11.4137 64.6 11.1718 64.4287Q10.9299 64.2573 10.6968 64.0743Q10.4636 63.8913 10.2397 63.6971Q10.0157 63.5029 9.80163 63.2979Q9.58751 63.0929 9.38371 62.8777Q9.17991 62.6625 8.98691 62.4375Q8.79392 62.2125 8.61219 61.9784Q8.43047 61.7442 8.26045 61.5014L8.2593 61.4997Q8.08929 61.2569 7.93139 61.0061Q7.77349 60.7552 7.6281 60.4969Q7.4827 60.2386 7.35015 59.9735Q7.2176 59.7084 7.09822 59.437Q6.97884 59.1657 6.87292 58.8889Q6.767 58.612 6.67478 58.3303Q6.58257 58.0486 6.50429 57.7627Q6.42602 57.4769 6.36186 57.1875Q6.2977 56.8981 6.24783 56.6059Q6.19795 56.3137 6.16247 56.0194Q6.12698 55.7251 6.10598 55.4295Q6.08498 55.1338 6.07852 54.8375Q6.07205 54.5411 6.08013 54.2448Q6.08822 53.9485 6.11083 53.653Q6.13344 53.3574 6.17053 53.0633Q6.20761 52.7693 6.25908 52.4773Q6.31056 52.1854 6.37629 51.8964Q6.44202 51.6074 6.52186 51.3219Q6.60169 51.0364 6.69544 50.7552Q6.78919 50.474 6.89662 50.1978Q7.00405 49.9215 7.12491 49.6509Q7.24577 49.3802 7.37976 49.1158Q7.51375 48.8514 7.66055 48.5939Q7.80736 48.3364 7.96662 48.0864Q8.12588 47.8364 8.29722 47.5945Q8.46856 47.3527 8.65156 47.1195Q8.83456 46.8863 9.02878 46.6624Q9.223 46.4385 9.42797 46.2243Q9.63295 46.0102 9.84818 45.8064Q10.0634 45.6026 10.2884 45.4096Q10.5134 45.2166 10.7475 45.0349Q10.9817 44.8532 11.2245 44.6832L11.2245 44.6832Z" id="Rectangle-3" fill="#E73453" fill-rule="evenodd" stroke="none" />
        </g>
      </g>
      <g filter="url(#filter_2)">
        <g id="Group-2" transform="translate(450.11594 2.1132205)">
          <path d="M11.3553 54.3895L67.616 14.9954Q67.8816 14.8094 68.156 14.6367Q68.4304 14.464 68.7129 14.305Q68.9954 14.1459 69.2854 14.001Q69.5754 13.856 69.8721 13.7254Q70.1689 13.5948 70.4717 13.479Q70.7745 13.3631 71.0826 13.2623Q71.3907 13.1614 71.7034 13.0758Q72.0161 12.9902 72.3326 12.92Q72.6491 12.8498 72.9687 12.7953Q73.2883 12.7407 73.6102 12.7019Q73.932 12.6631 74.2554 12.6401Q74.5788 12.6172 74.9029 12.6101Q75.2271 12.603 75.5511 12.6119Q75.8752 12.6207 76.1985 12.6454Q76.5217 12.6702 76.8434 12.7107Q77.1651 12.7513 77.4843 12.8076Q77.8036 12.8639 78.1198 12.9358Q78.4359 13.0077 78.7481 13.095Q79.0603 13.1823 79.3679 13.2849Q79.6755 13.3874 79.9776 13.5049Q80.2798 13.6224 80.5758 13.7546Q80.8718 13.8868 81.161 14.0333Q81.4502 14.1799 81.7319 14.3405Q82.0135 14.501 82.2869 14.6752Q82.5604 14.8494 82.8249 15.0368Q83.0895 15.2242 83.3445 15.4244Q83.5996 15.6245 83.8445 15.837Q84.0894 16.0494 84.3236 16.2736Q84.5578 16.4978 84.7807 16.7332Q85.0036 16.9686 85.2147 17.2147Q85.4258 17.4608 85.6246 17.7169Q85.8233 17.973 86.0093 18.2386L86.0104 18.2402Q86.1964 18.5058 86.3691 18.7802Q86.5418 19.0545 86.7008 19.3371Q86.8598 19.6196 87.0048 19.9096Q87.1498 20.1996 87.2804 20.4963Q87.4109 20.793 87.5268 21.0958Q87.6426 21.3986 87.7435 21.7068Q87.8444 22.0149 87.93 22.3276Q88.0156 22.6403 88.0858 22.9568Q88.1559 23.2733 88.2105 23.5929Q88.265 23.9125 88.3039 24.2343Q88.3427 24.5562 88.3656 24.8796Q88.3886 25.203 88.3957 25.5271Q88.4027 25.8512 88.3939 26.1753Q88.3851 26.4994 88.3603 26.8227Q88.3356 27.1459 88.295 27.4676Q88.2545 27.7893 88.1982 28.1085Q88.1419 28.4278 88.07 28.7439Q87.9981 29.0601 87.9108 29.3723Q87.8234 29.6845 87.7209 29.9921Q87.6184 30.2996 87.5009 30.6018Q87.3834 30.904 87.2512 31.2Q87.119 31.496 86.9724 31.7852Q86.8259 32.0744 86.6653 32.3561Q86.5047 32.6377 86.3305 32.9111Q86.1563 33.1846 85.9689 33.4491Q85.7815 33.7137 85.5814 33.9687Q85.3812 34.2238 85.1688 34.4687Q84.9564 34.7136 84.7322 34.9478Q84.508 35.182 84.2726 35.4049Q84.0372 35.6278 83.7911 35.8389Q83.545 36.05 83.2889 36.2487Q83.0328 36.4475 82.7672 36.6335L26.5065 76.0276Q26.2409 76.2136 25.9665 76.3863Q25.6922 76.559 25.4096 76.718Q25.1271 76.8771 24.8371 77.022Q24.5471 77.167 24.2504 77.2976Q23.9536 77.4282 23.6509 77.544Q23.3481 77.6599 23.0399 77.7607Q22.7318 77.8616 22.4191 77.9472Q22.1064 78.0328 21.7899 78.103Q21.4734 78.1731 21.1538 78.2277Q20.8342 78.2823 20.5124 78.3211Q20.1905 78.3599 19.8671 78.3829Q19.5437 78.4058 19.2196 78.4129Q18.8954 78.42 18.5714 78.4111Q18.2473 78.4023 17.924 78.3776Q17.6008 78.3528 17.2791 78.3123Q16.9574 78.2717 16.6382 78.2154Q16.3189 78.1591 16.0028 78.0872Q15.6866 78.0153 15.3744 77.928Q15.0622 77.8407 14.7546 77.7381Q14.447 77.6356 14.1449 77.5181Q13.8427 77.4006 13.5467 77.2684Q13.2507 77.1362 12.9615 76.9897Q12.6723 76.8431 12.3906 76.6825Q12.109 76.522 11.8356 76.3478Q11.5621 76.1736 11.2976 75.9862Q11.033 75.7988 10.778 75.5986Q10.5229 75.3985 10.278 75.186Q10.0331 74.9736 9.79892 74.7494Q9.56472 74.5252 9.34181 74.2898Q9.1189 74.0544 8.90781 73.8083Q8.69672 73.5623 8.49796 73.3061Q8.29919 73.05 8.11324 72.7844L8.11209 72.7828Q7.92613 72.5172 7.75343 72.2428Q7.58073 71.9685 7.4217 71.6859Q7.26267 71.4034 7.1177 71.1134Q6.97272 70.8234 6.84215 70.5267Q6.71158 70.2299 6.59572 69.9272Q6.47987 69.6244 6.37901 69.3162Q6.27815 69.0081 6.19254 68.6954Q6.10692 68.3827 6.03675 68.0662Q5.96658 67.7497 5.91202 67.4301Q5.85747 67.1105 5.81866 66.7886Q5.77985 66.4668 5.75688 66.1434Q5.73391 65.82 5.72684 65.4959Q5.71977 65.1717 5.72861 64.8477Q5.73745 64.5236 5.76218 64.2003Q5.78691 63.8771 5.82748 63.5554Q5.86804 63.2337 5.92434 62.9145Q5.98063 62.5952 6.05253 62.279Q6.12443 61.9629 6.21175 61.6507Q6.29907 61.3385 6.40161 61.0309Q6.50414 60.7233 6.62165 60.4212Q6.73915 60.119 6.87134 59.823Q7.00353 59.527 7.15008 59.2378Q7.29664 58.9486 7.45721 58.6669Q7.61777 58.3853 7.79197 58.1119Q7.96616 57.8384 8.15357 57.5739Q8.34097 57.3093 8.54113 57.0543Q8.74128 56.7992 8.95371 56.5543Q9.16614 56.3094 9.39033 56.0752Q9.61453 55.841 9.84994 55.6181Q10.0854 55.3952 10.3314 55.1841Q10.5775 54.973 10.8336 54.7743Q11.0897 54.5755 11.3553 54.3895L11.3553 54.3895Z" id="Rectangle-3-Copy-3" fill="#B74256" fill-rule="evenodd" stroke="none" />
          <path d="M12.4119 46.9933L68.6727 7.59908Q68.9382 7.41312 69.2126 7.24042Q69.487 7.06772 69.7695 6.90869Q70.052 6.74966 70.342 6.60469Q70.632 6.45971 70.9287 6.32914Q71.2255 6.19857 71.5283 6.08271Q71.8311 5.96686 72.1392 5.866Q72.4473 5.76514 72.76 5.67952Q73.0727 5.59391 73.3892 5.52374Q73.7057 5.45357 74.0253 5.39901Q74.3449 5.34446 74.6668 5.30565Q74.9886 5.26684 75.312 5.24387Q75.6354 5.2209 75.9595 5.21383Q76.2837 5.20676 76.6078 5.2156Q76.9318 5.22444 77.2551 5.24917Q77.5784 5.2739 77.9 5.31447Q78.2217 5.35503 78.541 5.41133Q78.8602 5.46763 79.1764 5.53952Q79.4925 5.61142 79.8047 5.69874Q80.117 5.78606 80.4245 5.8886Q80.7321 5.99113 81.0342 6.10864Q81.3364 6.22614 81.6324 6.35833Q81.9285 6.49052 82.2176 6.63707Q82.5068 6.78363 82.7885 6.9442Q83.0701 7.10477 83.3436 7.27896Q83.617 7.45316 83.8815 7.64056Q84.1461 7.82796 84.4011 8.02812Q84.6562 8.22827 84.9011 8.4407Q85.146 8.65313 85.3802 8.87733Q85.6144 9.10152 85.8373 9.33693Q86.0602 9.57234 86.2713 9.81841Q86.4824 10.0645 86.6812 10.3206Q86.8799 10.5767 87.0659 10.8423L87.067 10.8439Q87.253 11.1095 87.4257 11.3839Q87.5984 11.6583 87.7574 11.9408Q87.9165 12.2233 88.0614 12.5133Q88.2064 12.8033 88.337 13.1Q88.4675 13.3968 88.5834 13.6996Q88.6993 14.0024 88.8001 14.3105Q88.901 14.6186 88.9866 14.9313Q89.0722 15.244 89.1424 15.5605Q89.2125 15.877 89.2671 16.1966Q89.3216 16.5162 89.3605 16.8381Q89.3993 17.1599 89.4222 17.4833Q89.4452 17.8067 89.4523 18.1308Q89.4594 18.455 89.4505 18.7791Q89.4417 19.1031 89.4169 19.4264Q89.3922 19.7497 89.3516 20.0713Q89.3111 20.393 89.2548 20.7123Q89.1985 21.0315 89.1266 21.3477Q89.0547 21.6638 88.9674 21.976Q88.8801 22.2882 88.7775 22.5958Q88.675 22.9034 88.5575 23.2055Q88.44 23.5077 88.3078 23.8037Q88.1756 24.0998 88.029 24.3889Q87.8825 24.6781 87.7219 24.9598Q87.5614 25.2414 87.3872 25.5149Q87.213 25.7883 87.0256 26.0529Q86.8382 26.3174 86.638 26.5724Q86.4378 26.8275 86.2254 27.0724Q86.013 27.3173 85.7888 27.5515Q85.5646 27.7857 85.3292 28.0086Q85.0938 28.2315 84.8477 28.4426Q84.6017 28.6537 84.3455 28.8525Q84.0894 29.0512 83.8238 29.2372L27.5631 68.6314Q27.2975 68.8173 27.0231 68.99Q26.7488 69.1627 26.4662 69.3218Q26.1837 69.4808 25.8937 69.6258Q25.6038 69.7707 25.307 69.9013Q25.0103 70.0319 24.7075 70.1477Q24.4047 70.2636 24.0965 70.3645Q23.7884 70.4653 23.4757 70.5509Q23.163 70.6365 22.8465 70.7067Q22.53 70.7769 22.2104 70.8314Q21.8908 70.886 21.569 70.9248Q21.2471 70.9636 20.9237 70.9866Q20.6003 71.0095 20.2762 71.0166Q19.9521 71.0237 19.628 71.0148Q19.3039 71.006 18.9806 70.9813Q18.6574 70.9566 18.3357 70.916Q18.0141 70.8754 17.6948 70.8191Q17.3755 70.7628 17.0594 70.6909Q16.7432 70.619 16.431 70.5317Q16.1188 70.4444 15.8112 70.3419Q15.5037 70.2393 15.2015 70.1218Q14.8993 70.0043 14.6033 69.8721Q14.3073 69.7399 14.0181 69.5934Q13.7289 69.4468 13.4472 69.2862Q13.1656 69.1257 12.8922 68.9515Q12.6187 68.7773 12.3542 68.5899Q12.0896 68.4025 11.8346 68.2023Q11.5795 68.0022 11.3346 67.7897Q11.0897 67.5773 10.8555 67.3531Q10.6213 67.1289 10.3984 66.8935Q10.1755 66.6581 9.96442 66.412Q9.75333 66.166 9.55457 65.9099Q9.3558 65.6537 9.16985 65.3882L9.1687 65.3865Q8.98275 65.1209 8.81004 64.8466Q8.63734 64.5722 8.47831 64.2897Q8.31928 64.0071 8.17431 63.7171Q8.02933 63.4272 7.89876 63.1304Q7.76819 62.8337 7.65233 62.5309Q7.53648 62.2281 7.43562 61.92Q7.33476 61.6118 7.24915 61.2991Q7.16353 60.9865 7.09336 60.6699Q7.02319 60.3534 6.96863 60.0338Q6.91408 59.7142 6.87527 59.3924Q6.83646 59.0705 6.81349 58.7471Q6.79052 58.4237 6.78345 58.0996Q6.77638 57.7755 6.78522 57.4514Q6.79406 57.1273 6.81879 56.804Q6.84352 56.4808 6.88409 56.1591Q6.92465 55.8375 6.98095 55.5182Q7.03724 55.1989 7.10914 54.8828Q7.18104 54.5666 7.26836 54.2544Q7.35568 53.9422 7.45822 53.6346Q7.56075 53.3271 7.67826 53.0249Q7.79576 52.7227 7.92795 52.4267Q8.06014 52.1307 8.20669 51.8415Q8.35325 51.5523 8.51382 51.2707Q8.67439 50.989 8.84858 50.7156Q9.02277 50.4421 9.21018 50.1776Q9.39758 49.913 9.59774 49.658Q9.79789 49.403 10.0103 49.158Q10.2228 48.9131 10.4469 48.6789Q10.6711 48.4447 10.9065 48.2218Q11.142 47.9989 11.388 47.7878Q11.6341 47.5767 11.8902 47.378Q12.1464 47.1792 12.4119 46.9933Z" id="Rectangle-3-Copy-2" fill="url(#gradient_4)" fill-rule="evenodd" stroke="none" />
        </g>
      </g>
      <g filter="url(#filter_2)">
        <g id="Group" transform="translate(320.1529 -5.968559E-13)">
          <path d="M11.3553 54.3895L67.616 14.9954Q67.8816 14.8094 68.156 14.6367Q68.4304 14.464 68.7129 14.305Q68.9954 14.1459 69.2854 14.001Q69.5754 13.856 69.8721 13.7254Q70.1689 13.5948 70.4717 13.479Q70.7745 13.3631 71.0826 13.2623Q71.3907 13.1614 71.7034 13.0758Q72.0161 12.9902 72.3326 12.92Q72.6491 12.8498 72.9687 12.7953Q73.2883 12.7407 73.6102 12.7019Q73.932 12.6631 74.2554 12.6401Q74.5788 12.6172 74.9029 12.6101Q75.2271 12.603 75.5511 12.6119Q75.8752 12.6207 76.1985 12.6454Q76.5217 12.6702 76.8434 12.7107Q77.1651 12.7513 77.4843 12.8076Q77.8036 12.8639 78.1198 12.9358Q78.4359 13.0077 78.7481 13.095Q79.0603 13.1823 79.3679 13.2849Q79.6755 13.3874 79.9776 13.5049Q80.2798 13.6224 80.5758 13.7546Q80.8718 13.8868 81.161 14.0333Q81.4502 14.1799 81.7319 14.3405Q82.0135 14.501 82.2869 14.6752Q82.5604 14.8494 82.8249 15.0368Q83.0895 15.2242 83.3445 15.4244Q83.5996 15.6245 83.8445 15.837Q84.0894 16.0494 84.3236 16.2736Q84.5578 16.4978 84.7807 16.7332Q85.0036 16.9686 85.2147 17.2147Q85.4258 17.4608 85.6246 17.7169Q85.8233 17.973 86.0093 18.2386L86.0104 18.2402Q86.1964 18.5058 86.3691 18.7802Q86.5418 19.0545 86.7008 19.3371Q86.8598 19.6196 87.0048 19.9096Q87.1498 20.1996 87.2804 20.4963Q87.4109 20.793 87.5268 21.0958Q87.6426 21.3986 87.7435 21.7068Q87.8444 22.0149 87.93 22.3276Q88.0156 22.6403 88.0858 22.9568Q88.1559 23.2733 88.2105 23.5929Q88.265 23.9125 88.3039 24.2343Q88.3427 24.5562 88.3656 24.8796Q88.3886 25.203 88.3957 25.5271Q88.4027 25.8512 88.3939 26.1753Q88.3851 26.4994 88.3603 26.8227Q88.3356 27.1459 88.295 27.4676Q88.2545 27.7893 88.1982 28.1085Q88.1419 28.4278 88.07 28.7439Q87.9981 29.0601 87.9108 29.3723Q87.8234 29.6845 87.7209 29.9921Q87.6184 30.2996 87.5009 30.6018Q87.3834 30.904 87.2512 31.2Q87.119 31.496 86.9724 31.7852Q86.8259 32.0744 86.6653 32.3561Q86.5047 32.6377 86.3305 32.9111Q86.1563 33.1846 85.9689 33.4491Q85.7815 33.7137 85.5814 33.9687Q85.3812 34.2238 85.1688 34.4687Q84.9564 34.7136 84.7322 34.9478Q84.508 35.182 84.2726 35.4049Q84.0372 35.6278 83.7911 35.8389Q83.545 36.05 83.2889 36.2487Q83.0328 36.4475 82.7672 36.6335L26.5065 76.0276Q26.2409 76.2136 25.9665 76.3863Q25.6922 76.559 25.4096 76.718Q25.1271 76.8771 24.8371 77.022Q24.5471 77.167 24.2504 77.2976Q23.9536 77.4282 23.6509 77.544Q23.3481 77.6599 23.0399 77.7607Q22.7318 77.8616 22.4191 77.9472Q22.1064 78.0328 21.7899 78.103Q21.4734 78.1731 21.1538 78.2277Q20.8342 78.2823 20.5124 78.3211Q20.1905 78.3599 19.8671 78.3829Q19.5437 78.4058 19.2196 78.4129Q18.8954 78.42 18.5714 78.4111Q18.2473 78.4023 17.924 78.3776Q17.6008 78.3528 17.2791 78.3123Q16.9574 78.2717 16.6382 78.2154Q16.3189 78.1591 16.0028 78.0872Q15.6866 78.0153 15.3744 77.928Q15.0622 77.8407 14.7546 77.7381Q14.447 77.6356 14.1449 77.5181Q13.8427 77.4006 13.5467 77.2684Q13.2507 77.1362 12.9615 76.9897Q12.6723 76.8431 12.3906 76.6825Q12.109 76.522 11.8356 76.3478Q11.5621 76.1736 11.2976 75.9862Q11.033 75.7988 10.778 75.5986Q10.5229 75.3985 10.278 75.186Q10.0331 74.9736 9.79892 74.7494Q9.56472 74.5252 9.34181 74.2898Q9.1189 74.0544 8.90781 73.8083Q8.69672 73.5623 8.49796 73.3061Q8.29919 73.05 8.11324 72.7844L8.11209 72.7828Q7.92613 72.5172 7.75343 72.2428Q7.58073 71.9685 7.4217 71.6859Q7.26267 71.4034 7.1177 71.1134Q6.97272 70.8234 6.84215 70.5267Q6.71158 70.2299 6.59572 69.9272Q6.47987 69.6244 6.37901 69.3162Q6.27815 69.0081 6.19254 68.6954Q6.10692 68.3827 6.03675 68.0662Q5.96658 67.7497 5.91202 67.4301Q5.85747 67.1105 5.81866 66.7886Q5.77985 66.4668 5.75688 66.1434Q5.73391 65.82 5.72684 65.4959Q5.71977 65.1717 5.72861 64.8477Q5.73745 64.5236 5.76218 64.2003Q5.78691 63.8771 5.82748 63.5554Q5.86804 63.2337 5.92434 62.9145Q5.98063 62.5952 6.05253 62.279Q6.12443 61.9629 6.21175 61.6507Q6.29907 61.3385 6.40161 61.0309Q6.50414 60.7233 6.62165 60.4212Q6.73915 60.119 6.87134 59.823Q7.00353 59.527 7.15008 59.2378Q7.29664 58.9486 7.45721 58.6669Q7.61777 58.3853 7.79197 58.1119Q7.96616 57.8384 8.15357 57.5739Q8.34097 57.3093 8.54113 57.0543Q8.74128 56.7992 8.95371 56.5543Q9.16614 56.3094 9.39033 56.0752Q9.61453 55.841 9.84994 55.6181Q10.0854 55.3952 10.3314 55.1841Q10.5775 54.973 10.8336 54.7743Q11.0897 54.5755 11.3553 54.3895L11.3553 54.3895Z" id="Rectangle-3-Copy-5" fill="#B74256" fill-rule="evenodd" stroke="none" />
          <path d="M12.4119 46.9933L68.6727 7.59908Q68.9382 7.41312 69.2126 7.24042Q69.487 7.06772 69.7695 6.90869Q70.052 6.74966 70.342 6.60469Q70.632 6.45971 70.9287 6.32914Q71.2255 6.19857 71.5283 6.08271Q71.8311 5.96686 72.1392 5.866Q72.4473 5.76514 72.76 5.67952Q73.0727 5.59391 73.3892 5.52374Q73.7057 5.45357 74.0253 5.39901Q74.3449 5.34446 74.6668 5.30565Q74.9886 5.26684 75.312 5.24387Q75.6354 5.2209 75.9595 5.21383Q76.2837 5.20676 76.6078 5.2156Q76.9318 5.22444 77.2551 5.24917Q77.5784 5.2739 77.9 5.31447Q78.2217 5.35503 78.541 5.41133Q78.8602 5.46763 79.1764 5.53952Q79.4925 5.61142 79.8047 5.69874Q80.117 5.78606 80.4245 5.8886Q80.7321 5.99113 81.0342 6.10864Q81.3364 6.22614 81.6324 6.35833Q81.9285 6.49052 82.2176 6.63707Q82.5068 6.78363 82.7885 6.9442Q83.0701 7.10477 83.3436 7.27896Q83.617 7.45316 83.8815 7.64056Q84.1461 7.82796 84.4011 8.02812Q84.6562 8.22827 84.9011 8.4407Q85.146 8.65313 85.3802 8.87733Q85.6144 9.10152 85.8373 9.33693Q86.0602 9.57234 86.2713 9.81841Q86.4824 10.0645 86.6812 10.3206Q86.8799 10.5767 87.0659 10.8423L87.067 10.8439Q87.253 11.1095 87.4257 11.3839Q87.5984 11.6583 87.7574 11.9408Q87.9165 12.2233 88.0614 12.5133Q88.2064 12.8033 88.337 13.1Q88.4675 13.3968 88.5834 13.6996Q88.6993 14.0024 88.8001 14.3105Q88.901 14.6186 88.9866 14.9313Q89.0722 15.244 89.1424 15.5605Q89.2125 15.877 89.2671 16.1966Q89.3216 16.5162 89.3605 16.8381Q89.3993 17.1599 89.4222 17.4833Q89.4452 17.8067 89.4523 18.1308Q89.4594 18.455 89.4505 18.7791Q89.4417 19.1031 89.4169 19.4264Q89.3922 19.7497 89.3516 20.0713Q89.3111 20.393 89.2548 20.7123Q89.1985 21.0315 89.1266 21.3477Q89.0547 21.6638 88.9674 21.976Q88.8801 22.2882 88.7775 22.5958Q88.675 22.9034 88.5575 23.2055Q88.44 23.5077 88.3078 23.8037Q88.1756 24.0998 88.029 24.3889Q87.8825 24.6781 87.7219 24.9598Q87.5614 25.2414 87.3872 25.5149Q87.213 25.7883 87.0256 26.0529Q86.8382 26.3174 86.638 26.5724Q86.4378 26.8275 86.2254 27.0724Q86.013 27.3173 85.7888 27.5515Q85.5646 27.7857 85.3292 28.0086Q85.0938 28.2315 84.8477 28.4426Q84.6017 28.6537 84.3455 28.8525Q84.0894 29.0512 83.8238 29.2372L27.5631 68.6314Q27.2975 68.8173 27.0231 68.99Q26.7488 69.1627 26.4662 69.3218Q26.1837 69.4808 25.8937 69.6258Q25.6038 69.7707 25.307 69.9013Q25.0103 70.0319 24.7075 70.1477Q24.4047 70.2636 24.0965 70.3645Q23.7884 70.4653 23.4757 70.5509Q23.163 70.6365 22.8465 70.7067Q22.53 70.7769 22.2104 70.8314Q21.8908 70.886 21.569 70.9248Q21.2471 70.9636 20.9237 70.9866Q20.6003 71.0095 20.2762 71.0166Q19.9521 71.0237 19.628 71.0148Q19.3039 71.006 18.9806 70.9813Q18.6574 70.9566 18.3357 70.916Q18.0141 70.8754 17.6948 70.8191Q17.3755 70.7628 17.0594 70.6909Q16.7432 70.619 16.431 70.5317Q16.1188 70.4444 15.8112 70.3419Q15.5037 70.2393 15.2015 70.1218Q14.8993 70.0043 14.6033 69.8721Q14.3073 69.7399 14.0181 69.5934Q13.7289 69.4468 13.4472 69.2862Q13.1656 69.1257 12.8922 68.9515Q12.6187 68.7773 12.3542 68.5899Q12.0896 68.4025 11.8346 68.2023Q11.5795 68.0022 11.3346 67.7897Q11.0897 67.5773 10.8555 67.3531Q10.6213 67.1289 10.3984 66.8935Q10.1755 66.6581 9.96442 66.412Q9.75333 66.166 9.55457 65.9099Q9.3558 65.6537 9.16985 65.3882L9.1687 65.3865Q8.98275 65.1209 8.81004 64.8466Q8.63734 64.5722 8.47831 64.2897Q8.31928 64.0071 8.17431 63.7171Q8.02933 63.4272 7.89876 63.1304Q7.76819 62.8337 7.65233 62.5309Q7.53648 62.2281 7.43562 61.92Q7.33476 61.6118 7.24915 61.2991Q7.16353 60.9865 7.09336 60.6699Q7.02319 60.3534 6.96863 60.0338Q6.91408 59.7142 6.87527 59.3924Q6.83646 59.0705 6.81349 58.7471Q6.79052 58.4237 6.78345 58.0996Q6.77638 57.7755 6.78522 57.4514Q6.79406 57.1273 6.81879 56.804Q6.84352 56.4808 6.88409 56.1591Q6.92465 55.8375 6.98095 55.5182Q7.03724 55.1989 7.10914 54.8828Q7.18104 54.5666 7.26836 54.2544Q7.35568 53.9422 7.45822 53.6346Q7.56075 53.3271 7.67826 53.0249Q7.79576 52.7227 7.92795 52.4267Q8.06014 52.1307 8.20669 51.8415Q8.35325 51.5523 8.51382 51.2707Q8.67439 50.989 8.84858 50.7156Q9.02277 50.4421 9.21018 50.1776Q9.39758 49.913 9.59774 49.658Q9.79789 49.403 10.0103 49.158Q10.2228 48.9131 10.4469 48.6789Q10.6711 48.4447 10.9065 48.2218Q11.142 47.9989 11.388 47.7878Q11.6341 47.5767 11.8902 47.378Q12.1464 47.1792 12.4119 46.9933Z" id="Rectangle-3-Copy-4" fill="url(#gradient_4)" fill-rule="evenodd" stroke="none" />
        </g>
      </g>
    </g>
  </g>
</svg>