<?xml version="1.0" encoding="utf-8"?>
<svg width="80px" height="80px" viewBox="0 0 80 80" version="1.1" xmlns:xlink="http://www.w3.org/1999/xlink" xmlns="http://www.w3.org/2000/svg">
  <defs>
    <path d="M14.999 0L65.001 0Q65.3692 0 65.737 0.0180669Q66.1047 0.0361339 66.4712 0.0722243Q66.8376 0.108315 67.2018 0.162341Q67.566 0.216368 67.9271 0.288202Q68.2883 0.360035 68.6455 0.449501Q69.0026 0.538968 69.355 0.645852Q69.7073 0.752736 70.054 0.87678Q70.4007 1.00082 70.7409 1.14173Q71.081 1.28264 71.4139 1.44006Q71.7467 1.59749 72.0715 1.77106Q72.3962 1.94463 72.712 2.13393Q73.0278 2.32322 73.334 2.52779Q73.6401 2.73235 73.9359 2.95169Q74.2316 3.17103 74.5163 3.40462Q74.8009 3.6382 75.0737 3.88547Q75.3465 4.13274 75.6069 4.39311Q75.8673 4.65346 76.1145 4.92629Q76.3618 5.19911 76.5954 5.48373Q76.829 5.76836 77.0483 6.06411Q77.2676 6.35985 77.4722 6.666Q77.6768 6.97215 77.8661 7.28797Q78.0554 7.60379 78.2289 7.92852Q78.4025 8.25325 78.5599 8.5861Q78.7174 8.91895 78.8583 9.25913Q78.9992 9.59931 79.1232 9.94599Q79.2473 10.2927 79.3541 10.645Q79.461 10.9974 79.5505 11.3545Q79.64 11.7117 79.7118 12.0728Q79.7836 12.434 79.8376 12.7982Q79.8917 13.1624 79.9278 13.5288Q79.9639 13.8953 79.9819 14.263Q80 14.6308 80 14.999L80 65.001Q80 65.3692 79.9819 65.737Q79.9639 66.1047 79.9278 66.4712Q79.8917 66.8376 79.8376 67.2018Q79.7836 67.566 79.7118 67.9271Q79.64 68.2883 79.5505 68.6455Q79.461 69.0026 79.3541 69.355Q79.2473 69.7073 79.1232 70.054Q78.9992 70.4007 78.8583 70.7409Q78.7174 71.081 78.5599 71.4139Q78.4025 71.7467 78.2289 72.0715Q78.0554 72.3962 77.8661 72.712Q77.6768 73.0278 77.4722 73.334Q77.2676 73.6401 77.0483 73.9359Q76.829 74.2316 76.5954 74.5163Q76.3618 74.8009 76.1145 75.0737Q75.8673 75.3465 75.6069 75.6069Q75.3465 75.8673 75.0737 76.1145Q74.8009 76.3618 74.5163 76.5954Q74.2316 76.829 73.9359 77.0483Q73.6401 77.2676 73.334 77.4722Q73.0279 77.6768 72.712 77.8661Q72.3962 78.0554 72.0715 78.2289Q71.7467 78.4025 71.4139 78.5599Q71.081 78.7174 70.7409 78.8583Q70.4007 78.9992 70.054 79.1232Q69.7073 79.2473 69.355 79.3541Q69.0026 79.461 68.6455 79.5505Q68.2883 79.64 67.9272 79.7118Q67.566 79.7836 67.2018 79.8376Q66.8376 79.8917 66.4712 79.9278Q66.1047 79.9639 65.737 79.9819Q65.3692 80 65.001 80L14.999 80Q14.6308 80 14.263 79.9819Q13.8953 79.9639 13.5288 79.9278Q13.1624 79.8917 12.7982 79.8376Q12.434 79.7836 12.0728 79.7118Q11.7117 79.64 11.3545 79.5505Q10.9974 79.461 10.645 79.3541Q10.2927 79.2473 9.94599 79.1232Q9.59931 78.9992 9.25913 78.8583Q8.91895 78.7174 8.5861 78.5599Q8.25325 78.4025 7.92852 78.2289Q7.60379 78.0554 7.28797 77.8661Q6.97215 77.6768 6.666 77.4722Q6.35985 77.2676 6.06411 77.0483Q5.76836 76.829 5.48373 76.5954Q5.19911 76.3618 4.92629 76.1145Q4.65346 75.8673 4.39311 75.6069Q4.13274 75.3465 3.88547 75.0737Q3.6382 74.8009 3.40462 74.5163Q3.17103 74.2316 2.95169 73.9359Q2.73235 73.6401 2.52779 73.334Q2.32322 73.0279 2.13393 72.712Q1.94463 72.3962 1.77106 72.0715Q1.59749 71.7467 1.44006 71.4139Q1.28264 71.081 1.14173 70.7409Q1.00082 70.4007 0.87678 70.054Q0.752736 69.7073 0.645852 69.355Q0.538968 69.0026 0.449501 68.6455Q0.360035 68.2883 0.288202 67.9272Q0.216368 67.566 0.162341 67.2018Q0.108315 66.8376 0.0722243 66.4712Q0.0361339 66.1047 0.0180669 65.737Q0 65.3692 0 65.001L0 14.999Q0 14.6308 0.0180669 14.263Q0.0361339 13.8953 0.0722243 13.5288Q0.108315 13.1624 0.162341 12.7982Q0.216368 12.434 0.288202 12.0728Q0.360035 11.7117 0.449501 11.3545Q0.538968 10.9974 0.645852 10.645Q0.752736 10.2927 0.87678 9.94599Q1.00082 9.59931 1.14173 9.25913Q1.28264 8.91895 1.44006 8.5861Q1.59749 8.25325 1.77106 7.92852Q1.94463 7.60379 2.13393 7.28797Q2.32322 6.97215 2.52779 6.666Q2.73235 6.35985 2.95169 6.06411Q3.17103 5.76836 3.40462 5.48373Q3.6382 5.19911 3.88547 4.92629Q4.13274 4.65346 4.39311 4.39311Q4.65346 4.13274 4.92629 3.88547Q5.19911 3.6382 5.48373 3.40462Q5.76836 3.17103 6.06411 2.95169Q6.35985 2.73235 6.666 2.52779Q6.97215 2.32322 7.28797 2.13393Q7.60379 1.94463 7.92852 1.77106Q8.25325 1.59749 8.5861 1.44006Q8.91895 1.28264 9.25913 1.14173Q9.59931 1.00082 9.94599 0.87678Q10.2927 0.752736 10.645 0.645852Q10.9974 0.538968 11.3545 0.449501Q11.7117 0.360035 12.0728 0.288202Q12.434 0.216368 12.7982 0.162341Q13.1624 0.108315 13.5288 0.0722243Q13.8953 0.0361339 14.263 0.0180669Q14.6308 0 14.999 0L14.999 0Z" id="path_1" />
    <clipPath id="clip_1">
      <use xlink:href="#path_1" />
    </clipPath>
  </defs>
  <g id="Зробити">
    <g id="Rectangle-12-Copy-2">
      <g clip-path="url(#clip_1)">
        <use xlink:href="#path_1" fill="none" stroke="#C5D5E6" stroke-width="4" />
      </g>
    </g>
  </g>
  <path d="M56.3359 32.7529L53.5406 51.7271C53.2629 53.1671 52.6253 53.7976 52.1617 54.2588C51.7123 54.7059 51.4135 55.0024 51.4135 56.4541L51.4135 58.8235C51.4135 59.4729 50.8864 60 50.237 60C49.5876 60 49.0606 59.4729 49.0606 58.8235L49.0606 56.4541C49.0606 54.2071 49.7147 53.3741 50.5053 52.5906C50.87 52.2282 51.0888 52.0094 51.2206 51.3341L54.0088 32.4188C54.0512 32.1294 54.1288 31.1482 53.3664 31.0424C53.1029 31.0047 52.8888 31.0471 52.7194 31.1765C52.4935 31.3435 52.3335 31.6682 52.277 32.0659L51.1076 39.8682C51.0488 40.2706 50.7829 40.6118 50.4112 40.7741C50.0394 40.9365 49.6088 40.8918 49.2723 40.6588C49.1547 40.6776 48.957 40.6047 48.7594 40.4753C48.4017 40.2471 48.197 39.8447 48.2206 39.4212L48.8912 26.9835C48.9453 26.3294 48.4912 25.7859 47.8747 25.7318C47.5759 25.7035 47.2888 25.7976 47.0606 25.9882C46.83 26.1812 46.6935 26.4494 46.6676 26.7435L45.5782 37.9953C45.517 38.6282 45.0159 39.0871 44.3288 39.0565C44.1382 39.0447 43.9453 39.0329 43.75 39.0306C43.117 39.0165 42.6088 38.5059 42.597 37.8753L42.3264 23.4776C42.3264 22.8471 41.8323 22.3529 41.2253 22.3529C40.6182 22.3529 40.1241 22.8471 40.1241 23.4541L39.8465 38.9506C39.837 39.3976 39.5782 39.8024 39.1735 39.9929C39.0276 40.0635 38.8864 40.1341 38.7523 40.2094C38.4064 40.4071 37.9853 40.4141 37.6323 40.2282C37.2794 40.0447 37.0417 39.6941 37.0017 39.2988L35.79 26.76C35.7641 26.4518 35.6253 26.1835 35.3994 25.9929C35.1712 25.8024 34.8629 25.7153 34.5876 25.7365C34.2912 25.7624 34.0253 25.9012 33.8347 26.1294C33.6464 26.3553 33.5547 26.6424 33.5806 26.9365L34.7641 43.6353C34.8017 44.1482 34.4982 44.6282 34.0182 44.8141C33.5335 45.0024 32.9876 44.8541 32.67 44.4494L29.0206 39.8541C28.5429 39.0541 27.6982 38.8306 27.0441 39.2094C26.7241 39.3953 26.4959 39.6918 26.4017 40.0471C26.3076 40.4 26.3547 40.7718 26.5429 41.0894L34.8464 55.4118C35.0347 55.7388 35.3429 55.9671 35.71 56.0565C36.237 56.1835 36.6088 56.6565 36.6088 57.2L36.6088 58.8235C36.6088 59.4729 36.0817 60 35.4323 60C34.7829 60 34.2559 59.4729 34.2559 58.8235L34.2559 58C33.6582 57.6776 33.1617 57.1976 32.8112 56.5929L24.5053 42.2706C24.0041 41.4094 23.87 40.4047 24.1288 39.4424C24.3829 38.4776 25.0017 37.6729 25.8676 37.1718C27.6512 36.1435 29.9335 36.7553 30.9594 38.5341L32.15 40.0259L31.2347 27.1247C31.1547 26.2259 31.437 25.3271 32.03 24.6165C32.6229 23.9106 33.4606 23.4753 34.3806 23.3929C35.3147 23.3082 36.2041 23.5976 36.9147 24.1929C37.2582 24.4824 37.5335 24.8259 37.7382 25.2071L37.7712 23.4353C37.7712 21.5482 39.3217 20 41.2253 20C43.1288 20 44.6794 21.5506 44.6794 23.4565L44.7123 25.2118C44.9194 24.8282 45.197 24.4824 45.5429 24.1906C46.2559 23.5929 47.1617 23.3059 48.0794 23.3906C49.9876 23.5576 51.4017 25.2447 51.2347 27.1506L51.11 29.4518C51.1712 29.3976 51.237 29.3459 51.3006 29.2965C51.9782 28.7882 52.7994 28.5906 53.6959 28.7129C55.5429 28.9694 56.6323 30.6329 56.3359 32.7529L56.3359 32.7529Z" id="Shape" fill="#C5D5E6" fill-rule="evenodd" stroke="none" />
</svg>