<?xml version="1.0" encoding="utf-8"?>
<svg width="80px" height="80px" viewBox="0 0 80 80" version="1.1" xmlns:xlink="http://www.w3.org/1999/xlink" xmlns="http://www.w3.org/2000/svg">
  <defs>
    <path d="M14.999 0L65.001 0Q65.3692 0 65.737 0.0180669Q66.1047 0.0361339 66.4712 0.0722243Q66.8376 0.108315 67.2018 0.162341Q67.566 0.216368 67.9271 0.288202Q68.2883 0.360035 68.6455 0.449501Q69.0026 0.538968 69.355 0.645852Q69.7073 0.752736 70.054 0.87678Q70.4007 1.00082 70.7409 1.14173Q71.081 1.28264 71.4139 1.44006Q71.7467 1.59749 72.0715 1.77106Q72.3962 1.94463 72.712 2.13393Q73.0278 2.32322 73.334 2.52779Q73.6401 2.73235 73.9359 2.95169Q74.2316 3.17103 74.5163 3.40462Q74.8009 3.6382 75.0737 3.88547Q75.3465 4.13274 75.6069 4.39311Q75.8673 4.65346 76.1145 4.92629Q76.3618 5.19911 76.5954 5.48373Q76.829 5.76836 77.0483 6.06411Q77.2676 6.35985 77.4722 6.666Q77.6768 6.97215 77.8661 7.28797Q78.0554 7.60379 78.2289 7.92852Q78.4025 8.25325 78.5599 8.5861Q78.7174 8.91895 78.8583 9.25913Q78.9992 9.59931 79.1232 9.94599Q79.2473 10.2927 79.3541 10.645Q79.461 10.9974 79.5505 11.3545Q79.64 11.7117 79.7118 12.0728Q79.7836 12.434 79.8376 12.7982Q79.8917 13.1624 79.9278 13.5288Q79.9639 13.8953 79.9819 14.263Q80 14.6308 80 14.999L80 65.001Q80 65.3692 79.9819 65.737Q79.9639 66.1047 79.9278 66.4712Q79.8917 66.8376 79.8376 67.2018Q79.7836 67.566 79.7118 67.9271Q79.64 68.2883 79.5505 68.6455Q79.461 69.0026 79.3541 69.355Q79.2473 69.7073 79.1232 70.054Q78.9992 70.4007 78.8583 70.7409Q78.7174 71.081 78.5599 71.4139Q78.4025 71.7467 78.2289 72.0715Q78.0554 72.3962 77.8661 72.712Q77.6768 73.0278 77.4722 73.334Q77.2676 73.6401 77.0483 73.9359Q76.829 74.2316 76.5954 74.5163Q76.3618 74.8009 76.1145 75.0737Q75.8673 75.3465 75.6069 75.6069Q75.3465 75.8673 75.0737 76.1145Q74.8009 76.3618 74.5163 76.5954Q74.2316 76.829 73.9359 77.0483Q73.6401 77.2676 73.334 77.4722Q73.0279 77.6768 72.712 77.8661Q72.3962 78.0554 72.0715 78.2289Q71.7467 78.4025 71.4139 78.5599Q71.081 78.7174 70.7409 78.8583Q70.4007 78.9992 70.054 79.1232Q69.7073 79.2473 69.355 79.3541Q69.0026 79.461 68.6455 79.5505Q68.2883 79.64 67.9272 79.7118Q67.566 79.7836 67.2018 79.8376Q66.8376 79.8917 66.4712 79.9278Q66.1047 79.9639 65.737 79.9819Q65.3692 80 65.001 80L14.999 80Q14.6308 80 14.263 79.9819Q13.8953 79.9639 13.5288 79.9278Q13.1624 79.8917 12.7982 79.8376Q12.434 79.7836 12.0728 79.7118Q11.7117 79.64 11.3545 79.5505Q10.9974 79.461 10.645 79.3541Q10.2927 79.2473 9.94599 79.1232Q9.59931 78.9992 9.25913 78.8583Q8.91895 78.7174 8.5861 78.5599Q8.25325 78.4025 7.92852 78.2289Q7.60379 78.0554 7.28797 77.8661Q6.97215 77.6768 6.666 77.4722Q6.35985 77.2676 6.06411 77.0483Q5.76836 76.829 5.48373 76.5954Q5.19911 76.3618 4.92629 76.1145Q4.65346 75.8673 4.39311 75.6069Q4.13274 75.3465 3.88547 75.0737Q3.6382 74.8009 3.40462 74.5163Q3.17103 74.2316 2.95169 73.9359Q2.73235 73.6401 2.52779 73.334Q2.32322 73.0279 2.13393 72.712Q1.94463 72.3962 1.77106 72.0715Q1.59749 71.7467 1.44006 71.4139Q1.28264 71.081 1.14173 70.7409Q1.00082 70.4007 0.87678 70.054Q0.752736 69.7073 0.645852 69.355Q0.538968 69.0026 0.449501 68.6455Q0.360035 68.2883 0.288202 67.9272Q0.216368 67.566 0.162341 67.2018Q0.108315 66.8376 0.0722243 66.4712Q0.0361339 66.1047 0.0180669 65.737Q0 65.3692 0 65.001L0 14.999Q0 14.6308 0.0180669 14.263Q0.0361339 13.8953 0.0722243 13.5288Q0.108315 13.1624 0.162341 12.7982Q0.216368 12.434 0.288202 12.0728Q0.360035 11.7117 0.449501 11.3545Q0.538968 10.9974 0.645852 10.645Q0.752736 10.2927 0.87678 9.94599Q1.00082 9.59931 1.14173 9.25913Q1.28264 8.91895 1.44006 8.5861Q1.59749 8.25325 1.77106 7.92852Q1.94463 7.60379 2.13393 7.28797Q2.32322 6.97215 2.52779 6.666Q2.73235 6.35985 2.95169 6.06411Q3.17103 5.76836 3.40462 5.48373Q3.6382 5.19911 3.88547 4.92629Q4.13274 4.65346 4.39311 4.39311Q4.65346 4.13274 4.92629 3.88547Q5.19911 3.6382 5.48373 3.40462Q5.76836 3.17103 6.06411 2.95169Q6.35985 2.73235 6.666 2.52779Q6.97215 2.32322 7.28797 2.13393Q7.60379 1.94463 7.92852 1.77106Q8.25325 1.59749 8.5861 1.44006Q8.91895 1.28264 9.25913 1.14173Q9.59931 1.00082 9.94599 0.87678Q10.2927 0.752736 10.645 0.645852Q10.9974 0.538968 11.3545 0.449501Q11.7117 0.360035 12.0728 0.288202Q12.434 0.216368 12.7982 0.162341Q13.1624 0.108315 13.5288 0.0722243Q13.8953 0.0361339 14.263 0.0180669Q14.6308 0 14.999 0L14.999 0Z" id="path_1" />
    <clipPath id="clip_1">
      <use xlink:href="#path_1" />
    </clipPath>
  </defs>
  <g id="Rectangle-12-Copy-3">
    <g clip-path="url(#clip_1)">
      <use xlink:href="#path_1" fill="none" stroke="#C5D5E6" stroke-width="4" />
    </g>
  </g>
  <g id="clothes" transform="translate(18.333984 14)">
    <g id="Group">
      <path d="M16.154 28.6532L10.2159 28.6532L10.2159 1.94175L13.8848 1.94175C14.3525 4.90809 16.9262 7.18395 20.0219 7.18395C23.1175 7.18395 25.6913 4.90809 26.1591 1.94175L29.8276 1.94175L29.8276 16.8092C29.8276 17.3454 30.2623 17.7801 30.7984 17.7801C31.3346 17.7801 31.7693 17.3454 31.7693 16.8092L31.7693 14.1921L33.8588 15.2368C33.9974 15.3061 34.1458 15.3393 34.2924 15.3393C34.5995 15.3393 34.8989 15.1935 35.0862 14.9282L39.7463 8.3266C40.0381 7.91314 39.9634 7.34485 39.5746 7.02084L31.4236 0.228479C31.2546 0.0860841 31.0366 0 30.7984 0L9.24505 0C9.00647 0 8.78835 0.086343 8.61929 0.229126L0.469126 7.02084C0.0803883 7.34485 0.00556634 7.91314 0.297476 8.3266L4.95754 14.9282C5.14485 15.1934 5.44427 15.3393 5.75133 15.3393C5.89786 15.3393 6.04621 15.306 6.18498 15.2368L8.2743 14.1921L8.2743 29.6241C8.2743 30.1603 8.709 30.595 9.24518 30.595L16.1542 30.595C16.6904 30.595 17.125 30.1603 17.125 29.6241C17.125 29.0879 16.6902 28.6532 16.154 28.6532ZM33.9808 13.1269L31.7693 12.0211L31.7693 3.04427L37.643 7.9389L33.9808 13.1269ZM20.0219 5.2422C18.0005 5.2422 16.3038 3.83055 15.8628 1.94175L24.181 1.94175C23.7399 3.83068 22.0432 5.2422 20.0219 5.2422ZM6.06265 13.1269L2.40052 7.9389L8.27417 3.04427L8.27417 12.0211L6.06265 13.1269Z" id="Shape" fill="#C5D5E6" stroke="none" />
      <path d="M38.7951 18.9078L19.2746 18.9078C18.7384 18.9078 18.3037 19.3425 18.3037 19.8787L18.3037 54.0889C18.3037 54.6251 18.7384 55.0598 19.2746 55.0598L26.7504 55.0598C27.2656 55.0598 27.6913 54.6573 27.7197 54.1428L29.0347 30.4862L30.3496 54.1428C30.3783 54.6572 30.8038 55.0598 31.319 55.0598L38.7948 55.0598C39.331 55.0598 39.7657 54.6251 39.7657 54.0889L39.7657 19.8787C39.766 19.3424 39.3313 18.9078 38.7951 18.9078ZM37.8242 23.0224L34.7627 23.0224L34.7627 20.8496L37.8242 20.8496L37.8242 23.0224ZM25.2487 23.0224L25.2487 20.8496L32.821 20.8496L32.821 23.0224L25.2487 23.0224ZM23.3069 20.8496L23.3069 23.0224L20.2454 23.0224L20.2454 20.8496L23.3069 20.8496ZM32.2377 53.1179L30.9179 29.3773C30.8893 28.8629 30.4638 28.4603 29.9486 28.4603L28.1212 28.4603C27.606 28.4603 27.1803 28.8628 27.1518 29.3773L25.8322 53.1179L20.2456 53.1179L20.2456 24.9641L37.8243 24.9641L37.8243 53.1179L32.2377 53.1179Z" id="Shape" fill="#C5D5E6" stroke="none" />
    </g>
  </g>
</svg>