<?xml version="1.0" encoding="utf-8"?>
<svg width="18px" height="18px" viewBox="0 0 18 18" version="1.1" xmlns:xlink="http://www.w3.org/1999/xlink" xmlns="http://www.w3.org/2000/svg">
  <path d="M18 17.2325L12.3921 11.6245C13.4491 10.392 14.093 8.79403 14.093 7.04649C14.093 3.16117 10.9319 0 7.04651 0C5.16455 0 3.39429 0.732836 2.06189 2.063C0.731812 3.39424 -0.00109863 5.16454 0 7.04649C0 10.9318 3.16113 14.093 7.04651 14.093C8.79407 14.093 10.3931 13.4491 11.6256 12.3921L17.2335 18L18 17.2325ZM7.04651 13.0089C3.75952 13.0089 1.08411 10.3345 1.08411 7.04649C1.08301 5.4529 1.70313 3.95579 2.82947 2.83052C3.95471 1.70417 5.45288 1.08408 7.04651 1.08408C10.3334 1.08408 13.0089 3.75849 13.0089 7.04649C13.0089 10.3334 10.3334 13.0089 7.04651 13.0089Z" id="Shape" fill="#C5D5E6" stroke="none" />
</svg>