<?xml version="1.0" encoding="utf-8"?>
<svg width="22px" height="39px" viewBox="0 0 22 39" version="1.1" xmlns:xlink="http://www.w3.org/1999/xlink" xmlns="http://www.w3.org/2000/svg">
  <g id="the-tube-terminal" transform="translate(72 10)">
    <path d="M21.2848 38.9681L0.683517 38.9681C0.369259 38.9681 0.114552 38.7113 0.114552 38.3945L0.114552 2.69444C0.114552 1.20862 1.31355 0 2.78755 0L19.181 0C20.6548 0 21.854 1.20862 21.854 2.69444L21.854 38.3945C21.8538 38.7113 21.5991 38.9681 21.2848 38.9681ZM1.25248 37.821L20.7158 37.821L20.7158 26.7964L1.25248 26.7964L1.25248 37.821ZM1.25248 25.6496L20.7158 25.6496L20.7158 2.69444C20.7158 1.84122 20.0272 1.14706 19.1808 1.14706L2.78755 1.14706C1.94112 1.14706 1.25248 1.84122 1.25248 2.69444L1.25248 25.6496ZM9.40424 24.3213L9.10724 24.3213C8.79298 24.3213 8.53828 24.0645 8.53828 23.7478C8.53828 23.431 8.79298 23.1742 9.10724 23.1742L9.40424 23.1742C9.7185 23.1742 9.97321 23.431 9.97321 23.7478C9.97321 24.0645 9.7185 24.3213 9.40424 24.3213ZM6.96584 24.3213L6.66884 24.3213C6.35459 24.3213 6.09988 24.0645 6.09988 23.7478C6.09988 23.431 6.35459 23.1742 6.66884 23.1742L6.96584 23.1742C7.2801 23.1742 7.53481 23.431 7.53481 23.7478C7.53481 24.0645 7.2801 24.3213 6.96584 24.3213ZM4.52764 24.3213L4.23064 24.3213C3.91638 24.3213 3.66167 24.0645 3.66167 23.7478C3.66167 23.431 3.91638 23.1742 4.23064 23.1742L4.52764 23.1742C4.8419 23.1742 5.0966 23.431 5.0966 23.7478C5.0966 24.0645 4.8419 24.3213 4.52764 24.3213ZM17.7379 23.5187L13.3354 23.5187C13.0212 23.5187 12.7664 23.262 12.7664 22.9452L12.7664 20.086C12.7664 19.7692 13.0212 19.5124 13.3354 19.5124L17.7379 19.5124C18.0521 19.5124 18.3068 19.7692 18.3068 20.086L18.3068 22.9452C18.3068 23.2618 18.0521 23.5187 17.7379 23.5187ZM13.9044 22.3717L17.1689 22.3717L17.1689 20.6595L13.9044 20.6595L13.9044 22.3717ZM9.40424 22.4904L9.10724 22.4904C8.79298 22.4904 8.53828 22.2336 8.53828 21.9169C8.53828 21.6001 8.79298 21.3433 9.10724 21.3433L9.40424 21.3433C9.7185 21.3433 9.97321 21.6001 9.97321 21.9169C9.97321 22.2336 9.7185 22.4904 9.40424 22.4904ZM6.96584 22.4904L6.66884 22.4904C6.35459 22.4904 6.09988 22.2336 6.09988 21.9169C6.09988 21.6001 6.35459 21.3433 6.66884 21.3433L6.96584 21.3433C7.2801 21.3433 7.53481 21.6001 7.53481 21.9169C7.53481 22.2336 7.2801 22.4904 6.96584 22.4904ZM4.52764 22.4904L4.23064 22.4904C3.91638 22.4904 3.66167 22.2336 3.66167 21.9169C3.66167 21.6001 3.91638 21.3433 4.23064 21.3433L4.52764 21.3433C4.8419 21.3433 5.0966 21.6001 5.0966 21.9169C5.0966 22.2336 4.8419 22.4904 4.52764 22.4904ZM9.40424 20.6595L9.10724 20.6595C8.79298 20.6595 8.53828 20.4027 8.53828 20.086C8.53828 19.7692 8.79298 19.5124 9.10724 19.5124L9.40424 19.5124C9.7185 19.5124 9.97321 19.7692 9.97321 20.086C9.97321 20.4027 9.7185 20.6595 9.40424 20.6595ZM6.96584 20.6595L6.66884 20.6595C6.35459 20.6595 6.09988 20.4027 6.09988 20.086C6.09988 19.7692 6.35459 19.5124 6.66884 19.5124L6.96584 19.5124C7.2801 19.5124 7.53481 19.7692 7.53481 20.086C7.53481 20.4027 7.2801 20.6595 6.96584 20.6595ZM4.52764 20.6595L4.23064 20.6595C3.91638 20.6595 3.66167 20.4027 3.66167 20.086C3.66167 19.7692 3.91638 19.5124 4.23064 19.5124L4.52764 19.5124C4.8419 19.5124 5.0966 19.7692 5.0966 20.086C5.0966 20.4027 4.8419 20.6595 4.52764 20.6595ZM17.7379 18.0511L4.23064 18.0511C3.91638 18.0511 3.66167 17.7943 3.66167 17.4775L3.66167 4.43587C3.66167 4.11909 3.91638 3.86234 4.23064 3.86234L17.7379 3.86234C18.0521 3.86234 18.3068 4.11909 18.3068 4.43587L18.3068 17.4775C18.3068 17.7943 18.0521 18.0511 17.7379 18.0511ZM4.7996 16.904L17.1689 16.904L17.1689 5.0094L4.7996 5.0094L4.7996 16.904L4.7996 16.904Z" id="Shape" fill="#FFFFFF" stroke="none" />
  </g>
</svg>