<?xml version="1.0" encoding="utf-8"?>
<svg width="170px" height="85px" viewBox="0 0 170 85" version="1.1" xmlns:xlink="http://www.w3.org/1999/xlink" xmlns="http://www.w3.org/2000/svg">
  <g id="Карта" transform="translate(210 1000)">
    <path d="M9.999 0L160.001 0Q160.246 0 160.492 0.0120442Q160.737 0.0240885 160.981 0.0481479Q161.225 0.0722074 161.468 0.108224Q161.711 0.144241 161.952 0.192128Q162.192 0.240015 162.431 0.299657Q162.669 0.3593 162.904 0.430553Q163.138 0.501807 163.37 0.584501Q163.601 0.667194 163.827 0.761128Q164.054 0.855062 164.276 0.960011Q164.498 1.06496 164.714 1.18067Q164.931 1.29638 165.142 1.42257Q165.352 1.54876 165.556 1.68514Q165.76 1.82151 165.957 1.96773Q166.155 2.11395 166.344 2.26967Q166.534 2.42539 166.716 2.59023Q166.898 2.75507 167.071 2.92864Q167.245 3.10221 167.41 3.28408Q167.575 3.46596 167.73 3.6557Q167.886 3.84545 168.032 4.0426Q168.178 4.23976 168.315 4.44385Q168.451 4.64795 168.577 4.85849Q168.704 5.06903 168.819 5.2855Q168.935 5.50198 169.04 5.72388Q169.145 5.94577 169.239 6.17255Q169.333 6.39932 169.415 6.63044Q169.498 6.86155 169.569 7.09644Q169.641 7.33134 169.7 7.56944Q169.76 7.80755 169.808 8.04829Q169.856 8.28904 169.892 8.53184Q169.928 8.77465 169.952 9.01893Q169.976 9.26321 169.988 9.50837Q170 9.75354 170 9.999L170 75.001Q170 75.2465 169.988 75.4916Q169.976 75.7368 169.952 75.9811Q169.928 76.2253 169.892 76.4682Q169.856 76.711 169.808 76.9517Q169.76 77.1925 169.7 77.4306Q169.641 77.6687 169.569 77.9035Q169.498 78.1384 169.415 78.3695Q169.333 78.6007 169.239 78.8274Q169.145 79.0542 169.04 79.2761Q168.935 79.498 168.819 79.7145Q168.704 79.931 168.577 80.1415Q168.451 80.3521 168.315 80.5561Q168.178 80.7602 168.032 80.9574Q167.886 81.1545 167.73 81.3443Q167.575 81.534 167.41 81.7159Q167.245 81.8978 167.071 82.0714Q166.898 82.2449 166.716 82.4098Q166.534 82.5746 166.344 82.7303Q166.155 82.8861 165.957 83.0323Q165.76 83.1785 165.556 83.3149Q165.352 83.4512 165.142 83.5774Q164.931 83.7036 164.714 83.8193Q164.498 83.935 164.276 84.04Q164.054 84.1449 163.827 84.2389Q163.601 84.3328 163.37 84.4155Q163.138 84.4982 162.904 84.5695Q162.669 84.6407 162.431 84.7003Q162.192 84.76 161.952 84.8079Q161.711 84.8558 161.468 84.8918Q161.225 84.9278 160.981 84.9519Q160.737 84.9759 160.492 84.988Q160.246 85 160.001 85L9.999 85Q9.75354 85 9.50837 84.988Q9.26321 84.9759 9.01893 84.9519Q8.77465 84.9278 8.53184 84.8918Q8.28904 84.8558 8.04829 84.8079Q7.80755 84.76 7.56944 84.7003Q7.33134 84.6407 7.09644 84.5695Q6.86155 84.4982 6.63044 84.4155Q6.39932 84.3328 6.17255 84.2389Q5.94577 84.1449 5.72388 84.04Q5.50198 83.935 5.2855 83.8193Q5.06903 83.7036 4.85849 83.5774Q4.64795 83.4512 4.44385 83.3149Q4.23976 83.1785 4.0426 83.0323Q3.84545 82.8861 3.6557 82.7303Q3.46596 82.5746 3.28408 82.4098Q3.10221 82.2449 2.92864 82.0714Q2.75507 81.8978 2.59023 81.7159Q2.42539 81.534 2.26967 81.3443Q2.11395 81.1545 1.96773 80.9574Q1.82151 80.7602 1.68514 80.5561Q1.54876 80.3521 1.42257 80.1415Q1.29638 79.931 1.18067 79.7145Q1.06496 79.498 0.960011 79.2761Q0.855062 79.0542 0.761128 78.8274Q0.667194 78.6007 0.584501 78.3696Q0.501807 78.1384 0.430553 77.9036Q0.3593 77.6687 0.299657 77.4306Q0.240015 77.1925 0.192128 76.9517Q0.144241 76.711 0.108224 76.4682Q0.0722074 76.2253 0.0481479 75.9811Q0.0240885 75.7368 0.0120442 75.4916Q0 75.2465 0 75.001L0 9.999Q0 9.75354 0.0120442 9.50837Q0.0240885 9.26321 0.0481479 9.01893Q0.0722074 8.77465 0.108224 8.53184Q0.144241 8.28904 0.192128 8.04829Q0.240015 7.80755 0.299657 7.56944Q0.3593 7.33134 0.430553 7.09644Q0.501807 6.86155 0.584501 6.63044Q0.667194 6.39932 0.761128 6.17255Q0.855062 5.94577 0.960011 5.72388Q1.06496 5.50198 1.18067 5.2855Q1.29638 5.06903 1.42257 4.85849Q1.54876 4.64795 1.68514 4.44385Q1.82151 4.23976 1.96773 4.0426Q2.11395 3.84545 2.26967 3.6557Q2.42539 3.46596 2.59023 3.28408Q2.75507 3.10221 2.92864 2.92864Q3.10221 2.75507 3.28408 2.59023Q3.46596 2.42539 3.6557 2.26967Q3.84545 2.11395 4.0426 1.96773Q4.23976 1.82151 4.44385 1.68514Q4.64795 1.54876 4.85849 1.42257Q5.06903 1.29638 5.2855 1.18067Q5.50198 1.06496 5.72388 0.960011Q5.94577 0.855062 6.17255 0.761128Q6.39932 0.667194 6.63044 0.584501Q6.86155 0.501807 7.09644 0.430553Q7.33134 0.3593 7.56944 0.299657Q7.80755 0.240015 8.04829 0.192128Q8.28904 0.144241 8.53184 0.108224Q8.77465 0.0722074 9.01893 0.0481479Q9.26321 0.0240885 9.50837 0.0120442Q9.75354 0 9.999 0Z" id="Rectangle-15" fill="#C5D5E6" fill-rule="evenodd" stroke="none" />
    <g id="Мастеркард" transform="translate(30 20)">
      <path d="M12.5 25C19.4036 25 25 19.4036 25 12.5C25 5.59644 19.4036 0 12.5 0C5.59644 0 0 5.59644 0 12.5C0 19.4036 5.59644 25 12.5 25Z" id="Oval" fill="#FFFFFF" fill-opacity="0.8" fill-rule="evenodd" stroke="none" />
      <path d="M28.5 25C35.4036 25 41 19.4036 41 12.5C41 5.59644 35.4036 0 28.5 0C21.5964 0 16 5.59644 16 12.5C16 19.4036 21.5964 25 28.5 25Z" id="Oval-Copy" fill="#FFFFFF" fill-opacity="0.7" fill-rule="evenodd" stroke="none" />
    </g>
    <g id="visa-pay-logo" transform="translate(92 24)">
      <g id="Layer_1_copy_24_">
        <path d="M44.688 0.814L41.684 0.814C40.751 0.814 40.057 1.068 39.647 1.998L33.874 15.072L37.957 15.072C37.957 15.072 38.623 13.314 38.774 12.929C39.221 12.929 43.188 12.935 43.753 12.935C43.869 13.433 44.227 15.072 44.227 15.072L47.834 15.072L44.688 0.814ZM39.893 10.01C40.213 9.191 41.442 6.023 41.442 6.023C41.421 6.062 41.759 5.198 41.96 4.661L42.222 5.891C42.222 5.891 42.967 9.297 43.123 10.01L39.893 10.01ZM34.146 10.404C34.118 13.367 31.462 15.279 27.375 15.279C25.632 15.261 23.953 14.918 23.043 14.519L23.59 11.326L24.091 11.554C25.368 12.086 26.195 12.301 27.752 12.301C28.869 12.301 30.065 11.863 30.077 10.908C30.084 10.283 29.576 9.838 28.061 9.138C26.585 8.455 24.631 7.311 24.656 5.262C24.677 2.489 27.385 0.554 31.227 0.554C32.733 0.554 33.94 0.864 34.71 1.153L34.184 4.245L33.833 4.08C33.117 3.792 32.195 3.514 30.923 3.534C29.401 3.534 28.695 4.168 28.695 4.761C28.687 5.429 29.519 5.869 30.879 6.531C33.126 7.546 34.163 8.783 34.146 10.404ZM0 0.962L0.05 0.676L6.078 0.676C6.891 0.707 7.546 0.966 7.772 1.835L9.083 8.139C7.795 4.842 4.691 2.099 0 0.962ZM17.581 0.812L11.458 15.051L7.344 15.058L3.862 3.161C6.365 4.763 8.497 7.305 9.248 9.075L9.654 10.544L13.462 0.815L17.581 0.812L17.581 0.812ZM19.153 0.8L23.043 0.8L20.61 15.066L16.722 15.066L19.153 0.8Z" id="Shape" fill="#FFFFFF" stroke="none" />
      </g>
    </g>
    <g id="Карта-VisaMasterCard" fill="#FFFFFF" transform="translate(17 61)">
      <path d="M63.5795 13.1761L66.392 2.72727L65.4716 2.72727L62.6591 13.1761L63.5795 13.1761ZM47.9318 4.22727Q47.6378 4.22727 47.4268 4.02699Q47.2159 3.8267 47.2159 3.54545Q47.2159 3.2642 47.4268 3.06392Q47.6378 2.86364 47.9318 2.86364Q48.2259 2.86364 48.4368 3.06392Q48.6477 3.2642 48.6477 3.54545Q48.6477 3.8267 48.4368 4.02699Q48.2259 4.22727 47.9318 4.22727ZM114.273 5.86364L113.216 5.86364Q113.088 5.25852 112.726 4.84517Q112.364 4.43182 111.852 4.21875Q111.341 4.00568 110.761 4.00568Q109.969 4.00568 109.327 4.40625Q108.686 4.80682 108.309 5.58665Q107.932 6.36648 107.932 7.5Q107.932 8.63352 108.309 9.41335Q108.686 10.1932 109.327 10.5938Q109.969 10.9943 110.761 10.9943Q111.341 10.9943 111.852 10.7813Q112.364 10.5682 112.726 10.1548Q113.088 9.74148 113.216 9.13636L114.273 9.13636Q114.111 10.0313 113.612 10.6683Q113.114 11.3054 112.376 11.6442Q111.639 11.983 110.761 11.983Q109.645 11.983 108.776 11.4375Q107.906 10.892 107.408 9.88636Q106.909 8.88068 106.909 7.5Q106.909 6.11932 107.408 5.11364Q107.906 4.10795 108.776 3.5625Q109.645 3.01705 110.761 3.01705Q111.639 3.01705 112.376 3.35582Q113.114 3.6946 113.612 4.33168Q114.111 4.96875 114.273 5.86364ZM3.1875 7.85795L6.1875 11.8636L7.44886 11.8636L3.80114 6.97159L7.32955 3.13636L6.06818 3.13636L2.57386 6.92045L2.11364 6.92045L2.11364 3.13636L1.05682 3.13636L1.05682 11.8636L2.11364 11.8636L2.11364 7.85795L3.1875 7.85795ZM42.392 10.483L39.8011 3.13636L38.6932 3.13636L41.8977 11.8636L42.9886 11.8636L46.1932 3.13636L45.0852 3.13636L42.4943 10.483L42.392 10.483ZM67.7216 3.13636L68.983 3.13636L71.9489 10.3807L72.0511 10.3807L75.017 3.13636L76.2784 3.13636L76.2784 11.8636L75.2898 11.8636L75.2898 5.23295L75.2045 5.23295L72.4773 11.8636L71.5227 11.8636L68.7955 5.23295L68.7102 5.23295L68.7102 11.8636L67.7216 11.8636L67.7216 3.13636ZM128.101 11.5845Q128.727 12 129.545 12Q130.176 12 130.555 11.7891Q130.935 11.5781 131.139 11.3075Q131.344 11.0369 131.455 10.858L131.574 10.858L131.574 11.8636L132.545 11.8636L132.545 3.13636L131.54 3.13636L131.54 6.35795L131.455 6.35795Q131.344 6.1875 131.146 5.92116Q130.947 5.65483 130.575 5.44389Q130.202 5.23295 129.563 5.23295Q128.736 5.23295 128.105 5.64631Q127.474 6.05966 127.121 6.81818Q126.767 7.5767 126.767 8.60795Q126.767 9.64773 127.121 10.4084Q127.474 11.169 128.101 11.5845ZM94.142 6.17045L94.142 5.31818L92.7443 5.31818L92.7443 3.75L91.7386 3.75L91.7386 5.31818L90.75 5.31818L90.75 6.17045L91.7386 6.17045L91.7386 10.2614Q91.7386 10.8324 92.005 11.2074Q92.2713 11.5824 92.6783 11.7656Q93.0852 11.9489 93.5114 11.9489Q93.7926 11.9489 93.9759 11.9084Q94.1591 11.8679 94.2614 11.8295L94.0568 10.9261Q93.9929 10.9389 93.8864 10.9581Q93.7798 10.9773 93.6136 10.9773Q93.392 10.9773 93.1939 10.907Q92.9957 10.8366 92.87 10.6257Q92.7443 10.4148 92.7443 9.98864L92.7443 6.17045L94.142 6.17045ZM103.619 5.31818L102.648 5.31818L102.648 11.8636L103.653 11.8636L103.653 7.72159Q103.653 7.05682 104.122 6.62216Q104.591 6.1875 105.307 6.1875Q105.507 6.1875 105.688 6.2152Q105.869 6.2429 105.92 6.25568L105.92 5.23295Q105.835 5.22443 105.669 5.22017Q105.503 5.21591 105.392 5.21591Q104.804 5.21591 104.335 5.51847Q103.866 5.82102 103.688 6.30682L103.619 6.30682L103.619 5.31818ZM122.608 5.31818L123.58 5.31818L123.58 6.30682L123.648 6.30682Q123.827 5.82102 124.295 5.51847Q124.764 5.21591 125.352 5.21591Q125.463 5.21591 125.629 5.22017Q125.795 5.22443 125.881 5.23295L125.881 6.25568Q125.83 6.2429 125.648 6.2152Q125.467 6.1875 125.267 6.1875Q124.551 6.1875 124.082 6.62216Q123.614 7.05682 123.614 7.72159L123.614 11.8636L122.608 11.8636L122.608 5.31818ZM9.47301 11.7805Q9.98011 12.017 10.6023 12.017Q11.1733 12.017 11.5696 11.8466Q11.9659 11.6761 12.2045 11.4332Q12.4432 11.1903 12.5455 10.9773L12.5966 10.9773L12.5966 11.8636L13.6023 11.8636L13.6023 7.55114Q13.6023 6.77131 13.3466 6.30682Q13.0909 5.84233 12.7053 5.61222Q12.3196 5.3821 11.9084 5.30753Q11.4972 5.23295 11.1818 5.23295Q10.6875 5.23295 10.1783 5.36719Q9.66903 5.50142 9.24077 5.83594Q8.8125 6.17045 8.55682 6.76705L9.51136 7.10795Q9.67756 6.75 10.0866 6.43466Q10.4957 6.11932 11.2159 6.11932Q11.9105 6.11932 12.2536 6.46875Q12.5966 6.81818 12.5966 7.44886L12.5966 7.48295Q12.5966 7.72585 12.424 7.82386Q12.2514 7.92188 11.8786 7.96236Q11.5057 8.00284 10.9091 8.07955Q10.4531 8.1392 10.0036 8.23935Q9.55398 8.33949 9.18324 8.53977Q8.8125 8.74006 8.59091 9.09162Q8.36932 9.44318 8.36932 10.0057Q8.36932 10.6449 8.66761 11.0945Q8.96591 11.544 9.47301 11.7805ZM15.4432 14.3182L15.4432 5.31818L16.4148 5.31818L16.4148 6.35795L16.5341 6.35795Q16.6449 6.1875 16.843 5.92116Q17.0412 5.65483 17.4141 5.44389Q17.7869 5.23295 18.4261 5.23295Q19.2528 5.23295 19.8835 5.64631Q20.5142 6.05966 20.8679 6.81818Q21.2216 7.5767 21.2216 8.60795Q21.2216 9.64773 20.8679 10.4084Q20.5142 11.169 19.8878 11.5845Q19.2614 12 18.4432 12Q17.8125 12 17.4332 11.7891Q17.054 11.5781 16.8494 11.3075Q16.6449 11.0369 16.5341 10.858L16.4489 10.858L16.4489 14.3182L15.4432 14.3182ZM31.0909 12.017Q30.4688 12.017 29.9616 11.7805Q29.4545 11.544 29.1563 11.0945Q28.858 10.6449 28.858 10.0057Q28.858 9.44318 29.0795 9.09162Q29.3011 8.74006 29.6719 8.53977Q30.0426 8.33949 30.4922 8.23935Q30.9418 8.1392 31.3977 8.07955Q31.9943 8.00284 32.3672 7.96236Q32.7401 7.92188 32.9126 7.82386Q33.0852 7.72585 33.0852 7.48295L33.0852 7.44886Q33.0852 6.81818 32.7422 6.46875Q32.3992 6.11932 31.7045 6.11932Q30.9844 6.11932 30.5753 6.43466Q30.1662 6.75 30 7.10795L29.0455 6.76705Q29.3011 6.17045 29.7294 5.83594Q30.1577 5.50142 30.6669 5.36719Q31.1761 5.23295 31.6705 5.23295Q31.9858 5.23295 32.397 5.30753Q32.8082 5.3821 33.1939 5.61222Q33.5795 5.84233 33.8352 6.30682Q34.0909 6.77131 34.0909 7.55114L34.0909 11.8636L33.0852 11.8636L33.0852 10.9773L33.0341 10.9773Q32.9318 11.1903 32.6932 11.4332Q32.4545 11.6761 32.0582 11.8466Q31.6619 12.017 31.0909 12.017ZM54 7.03977L54.9034 6.78409Q54.669 6.08523 54.1129 5.65909Q53.5568 5.23295 52.5852 5.23295Q51.8949 5.23295 51.3516 5.47585Q50.8082 5.71875 50.495 6.14489Q50.1818 6.57102 50.1818 7.125Q50.1818 7.80256 50.6016 8.25213Q51.0213 8.7017 51.9205 8.91477L53.0114 9.17045Q53.983 9.39631 53.983 10.0909Q53.983 10.5128 53.5675 10.8132Q53.152 11.1136 52.4489 11.1136Q51.2003 11.1136 50.9318 10.0568L49.9773 10.2955Q50.152 11.1307 50.8082 11.5653Q51.4645 12 52.4659 12Q53.2287 12 53.804 11.7443Q54.3793 11.4886 54.701 11.0455Q55.0227 10.6023 55.0227 10.0398Q55.0227 8.69318 53.2841 8.26705L52.3125 8.02841Q51.733 7.88352 51.4602 7.66619Q51.1875 7.44886 51.1875 7.07386Q51.1875 6.65199 51.5859 6.37713Q51.9844 6.10227 52.5852 6.10227Q53.2457 6.10227 53.5568 6.40057Q53.8679 6.69886 54 7.03977ZM58.4659 12.017Q57.8438 12.017 57.3367 11.7805Q56.8295 11.544 56.5313 11.0945Q56.233 10.6449 56.233 10.0057Q56.233 9.44318 56.4545 9.09162Q56.6761 8.74006 57.0469 8.53977Q57.4176 8.33949 57.8672 8.23935Q58.3168 8.1392 58.7727 8.07955Q59.3693 8.00284 59.7422 7.96236Q60.1151 7.92188 60.2876 7.82386Q60.4602 7.72585 60.4602 7.48295L60.4602 7.44886Q60.4602 6.81818 60.1172 6.46875Q59.7742 6.11932 59.0795 6.11932Q58.3594 6.11932 57.9503 6.43466Q57.5412 6.75 57.375 7.10795L56.4205 6.76705Q56.6761 6.17045 57.1044 5.83594Q57.5327 5.50142 58.0419 5.36719Q58.5511 5.23295 59.0455 5.23295Q59.3608 5.23295 59.772 5.30753Q60.1832 5.3821 60.5689 5.61222Q60.9545 5.84233 61.2102 6.30682Q61.4659 6.77131 61.4659 7.55114L61.4659 11.8636L60.4602 11.8636L60.4602 10.9773L60.4091 10.9773Q60.3068 11.1903 60.0682 11.4332Q59.8295 11.6761 59.4332 11.8466Q59.0369 12.017 58.4659 12.017ZM79.0526 11.7805Q79.5597 12.017 80.1818 12.017Q80.7528 12.017 81.1491 11.8466Q81.5455 11.6761 81.7841 11.4332Q82.0227 11.1903 82.125 10.9773L82.1761 10.9773L82.1761 11.8636L83.1818 11.8636L83.1818 7.55114Q83.1818 6.77131 82.9261 6.30682Q82.6705 5.84233 82.2848 5.61222Q81.8991 5.3821 81.4879 5.30753Q81.0767 5.23295 80.7614 5.23295Q80.267 5.23295 79.7578 5.36719Q79.2486 5.50142 78.8203 5.83594Q78.392 6.17045 78.1364 6.76705L79.0909 7.10795Q79.2571 6.75 79.6662 6.43466Q80.0753 6.11932 80.7955 6.11932Q81.4901 6.11932 81.8331 6.46875Q82.1761 6.81818 82.1761 7.44886L82.1761 7.48295Q82.1761 7.72585 82.0036 7.82386Q81.831 7.92188 81.4581 7.96236Q81.0852 8.00284 80.4886 8.07955Q80.0327 8.1392 79.5831 8.23935Q79.1335 8.33949 78.7628 8.53977Q78.392 8.74006 78.1705 9.09162Q77.9489 9.44318 77.9489 10.0057Q77.9489 10.6449 78.2472 11.0945Q78.5455 11.544 79.0526 11.7805ZM89.6591 6.78409L88.7557 7.03977Q88.6236 6.69886 88.3125 6.40057Q88.0014 6.10227 87.3409 6.10227Q86.7401 6.10227 86.3416 6.37713Q85.9432 6.65199 85.9432 7.07386Q85.9432 7.44886 86.2159 7.66619Q86.4886 7.88352 87.0682 8.02841L88.0398 8.26705Q89.7784 8.69318 89.7784 10.0398Q89.7784 10.6023 89.4567 11.0455Q89.1349 11.4886 88.5597 11.7443Q87.9844 12 87.2216 12Q86.2202 12 85.5639 11.5653Q84.9077 11.1307 84.733 10.2955L85.6875 10.0568Q85.956 11.1136 87.2045 11.1136Q87.9077 11.1136 88.3232 10.8132Q88.7386 10.5128 88.7386 10.0909Q88.7386 9.39631 87.767 9.17045L86.6761 8.91477Q85.777 8.7017 85.3572 8.25213Q84.9375 7.80256 84.9375 7.125Q84.9375 6.57102 85.2507 6.14489Q85.5639 5.71875 86.1072 5.47585Q86.6506 5.23295 87.3409 5.23295Q88.3125 5.23295 88.8686 5.65909Q89.4247 6.08523 89.6591 6.78409ZM98.4034 12Q97.4574 12 96.7734 11.5803Q96.0895 11.1605 95.7209 10.4041Q95.3523 9.64773 95.3523 8.64205Q95.3523 7.63636 95.7209 6.86719Q96.0895 6.09801 96.7521 5.66548Q97.4148 5.23295 98.3011 5.23295Q98.8125 5.23295 99.3111 5.40341Q99.8097 5.57386 100.219 5.95526Q100.628 6.33665 100.871 6.96307Q101.114 7.58949 101.114 8.50568L101.114 8.93182L96.3622 8.93182Q96.3963 9.98011 96.9567 10.5384Q97.5171 11.0966 98.4034 11.0966Q98.9957 11.0966 99.4219 10.8409Q99.848 10.5852 100.04 10.0739L101.011 10.3466Q100.781 11.0881 100.091 11.544Q99.4006 12 98.4034 12ZM116.638 11.7805Q117.145 12.017 117.767 12.017Q118.338 12.017 118.734 11.8466Q119.131 11.6761 119.369 11.4332Q119.608 11.1903 119.71 10.9773L119.761 10.9773L119.761 11.8636L120.767 11.8636L120.767 7.55114Q120.767 6.77131 120.511 6.30682Q120.256 5.84233 119.87 5.61222Q119.484 5.3821 119.073 5.30753Q118.662 5.23295 118.347 5.23295Q117.852 5.23295 117.343 5.36719Q116.834 5.50142 116.406 5.83594Q115.977 6.17045 115.722 6.76705L116.676 7.10795Q116.842 6.75 117.251 6.43466Q117.661 6.11932 118.381 6.11932Q119.075 6.11932 119.418 6.46875Q119.761 6.81818 119.761 7.44886L119.761 7.48295Q119.761 7.72585 119.589 7.82386Q119.416 7.92188 119.043 7.96236Q118.67 8.00284 118.074 8.07955Q117.618 8.1392 117.168 8.23935Q116.719 8.33949 116.348 8.53977Q115.977 8.74006 115.756 9.09162Q115.534 9.44318 115.534 10.0057Q115.534 10.6449 115.832 11.0945Q116.131 11.544 116.638 11.7805ZM22.3807 5.31818L22.3807 6.25568L24.5455 6.25568L24.5455 11.8636L25.5511 11.8636L25.5511 6.25568L27.6989 6.25568L27.6989 5.31818L22.3807 5.31818ZM47.4205 5.31818L48.4261 5.31818L48.4261 11.8636L47.4205 11.8636L47.4205 5.31818ZM16.4318 8.59091Q16.4318 9.70313 16.9155 10.3999Q17.3991 11.0966 18.3068 11.0966Q18.9375 11.0966 19.3615 10.7621Q19.7855 10.4276 20.0007 9.85866Q20.2159 9.28977 20.2159 8.59091Q20.2159 7.90057 20.005 7.34446Q19.794 6.78835 19.37 6.46236Q18.946 6.13636 18.3068 6.13636Q17.3864 6.13636 16.9091 6.81392Q16.4318 7.49148 16.4318 8.59091ZM96.3622 8.0625L100.091 8.0625Q100.091 7.23153 99.6051 6.68395Q99.1193 6.13636 98.3011 6.13636Q97.7259 6.13636 97.304 6.40483Q96.8821 6.6733 96.6392 7.11435Q96.3963 7.5554 96.3622 8.0625ZM131.073 10.3999Q130.589 11.0966 129.682 11.0966Q129.051 11.0966 128.627 10.7621Q128.203 10.4276 127.988 9.85866Q127.773 9.28977 127.773 8.59091Q127.773 7.90057 127.984 7.34446Q128.195 6.78835 128.619 6.46236Q129.043 6.13636 129.682 6.13636Q130.602 6.13636 131.08 6.81392Q131.557 7.49148 131.557 8.59091Q131.557 9.70313 131.073 10.3999ZM11.7635 10.8793Q11.3523 11.1136 10.7557 11.1136Q10.1548 11.1136 9.76492 10.8473Q9.375 10.581 9.375 10.0568Q9.375 9.6733 9.58168 9.44957Q9.78835 9.22585 10.1271 9.11293Q10.4659 9 10.858 8.94886Q11.0199 8.92756 11.282 8.8956Q11.544 8.86364 11.8232 8.81889Q12.1023 8.77415 12.3175 8.71236Q12.5327 8.65057 12.5966 8.57386L12.5966 9.49432Q12.5966 9.90341 12.3857 10.2741Q12.1747 10.6449 11.7635 10.8793ZM31.2443 11.1136Q31.8409 11.1136 32.2521 10.8793Q32.6634 10.6449 32.8743 10.2741Q33.0852 9.90341 33.0852 9.49432L33.0852 8.57386Q33.0213 8.65057 32.8061 8.71236Q32.5909 8.77415 32.3118 8.81889Q32.0327 8.86364 31.7706 8.8956Q31.5085 8.92756 31.3466 8.94886Q30.9545 9 30.6158 9.11293Q30.277 9.22585 30.0703 9.44957Q29.8636 9.6733 29.8636 10.0568Q29.8636 10.581 30.2536 10.8473Q30.6435 11.1136 31.2443 11.1136ZM58.6193 11.1136Q59.2159 11.1136 59.6271 10.8793Q60.0384 10.6449 60.2493 10.2741Q60.4602 9.90341 60.4602 9.49432L60.4602 8.57386Q60.3963 8.65057 60.1811 8.71236Q59.9659 8.77415 59.6868 8.81889Q59.4077 8.86364 59.1456 8.8956Q58.8835 8.92756 58.7216 8.94886Q58.3295 9 57.9908 9.11293Q57.652 9.22585 57.4453 9.44957Q57.2386 9.6733 57.2386 10.0568Q57.2386 10.581 57.6286 10.8473Q58.0185 11.1136 58.6193 11.1136ZM81.343 10.8793Q80.9318 11.1136 80.3352 11.1136Q79.7344 11.1136 79.3445 10.8473Q78.9545 10.581 78.9545 10.0568Q78.9545 9.6733 79.1612 9.44957Q79.3679 9.22585 79.7067 9.11293Q80.0455 9 80.4375 8.94886Q80.5994 8.92756 80.8615 8.8956Q81.1236 8.86364 81.4027 8.81889Q81.6818 8.77415 81.897 8.71236Q82.1122 8.65057 82.1761 8.57386L82.1761 9.49432Q82.1761 9.90341 81.9652 10.2741Q81.7543 10.6449 81.343 10.8793ZM118.928 10.8793Q118.517 11.1136 117.92 11.1136Q117.32 11.1136 116.93 10.8473Q116.54 10.581 116.54 10.0568Q116.54 9.6733 116.746 9.44957Q116.953 9.22585 117.292 9.11293Q117.631 9 118.023 8.94886Q118.185 8.92756 118.447 8.8956Q118.709 8.86364 118.988 8.81889Q119.267 8.77415 119.482 8.71236Q119.697 8.65057 119.761 8.57386L119.761 9.49432Q119.761 9.90341 119.55 10.2741Q119.34 10.6449 118.928 10.8793Z" />
    </g>
  </g>
</svg>