<?xml version="1.0" encoding="utf-8"?>
<svg width="48px" height="16px" viewBox="0 0 48 16" version="1.1" xmlns:xlink="http://www.w3.org/1999/xlink" xmlns="http://www.w3.org/2000/svg">
  <g id="visa-pay-logo" transform="translate(92 24)">
    <g id="Layer_1_copy_24_">
      <path d="M44.688 0.814L41.684 0.814C40.751 0.814 40.057 1.068 39.647 1.998L33.874 15.072L37.957 15.072C37.957 15.072 38.623 13.314 38.774 12.929C39.221 12.929 43.188 12.935 43.753 12.935C43.869 13.433 44.227 15.072 44.227 15.072L47.834 15.072L44.688 0.814ZM39.893 10.01C40.213 9.191 41.442 6.023 41.442 6.023C41.421 6.062 41.759 5.198 41.96 4.661L42.222 5.891C42.222 5.891 42.967 9.297 43.123 10.01L39.893 10.01ZM34.146 10.404C34.118 13.367 31.462 15.279 27.375 15.279C25.632 15.261 23.953 14.918 23.043 14.519L23.59 11.326L24.091 11.554C25.368 12.086 26.195 12.301 27.752 12.301C28.869 12.301 30.065 11.863 30.077 10.908C30.084 10.283 29.576 9.838 28.061 9.138C26.585 8.455 24.631 7.311 24.656 5.262C24.677 2.489 27.385 0.554 31.227 0.554C32.733 0.554 33.94 0.864 34.71 1.153L34.184 4.245L33.833 4.08C33.117 3.792 32.195 3.514 30.923 3.534C29.401 3.534 28.695 4.168 28.695 4.761C28.687 5.429 29.519 5.869 30.879 6.531C33.126 7.546 34.163 8.783 34.146 10.404ZM0 0.962L0.05 0.676L6.078 0.676C6.891 0.707 7.546 0.966 7.772 1.835L9.083 8.139C7.795 4.842 4.691 2.099 0 0.962ZM17.581 0.812L11.458 15.051L7.344 15.058L3.862 3.161C6.365 4.763 8.497 7.305 9.248 9.075L9.654 10.544L13.462 0.815L17.581 0.812L17.581 0.812ZM19.153 0.8L23.043 0.8L20.61 15.066L16.722 15.066L19.153 0.8Z" id="Shape" fill="#FFFFFF" stroke="none" />
    </g>
  </g>
</svg>