<?xml version="1.0" encoding="utf-8"?>
<svg width="114px" height="114px" viewBox="0 0 114 114" version="1.1" xmlns:xlink="http://www.w3.org/1999/xlink" xmlns="http://www.w3.org/2000/svg">
  <defs>
    <filter filterUnits="userSpaceOnUse" color-interpolation-filters="sRGB" id="filter_1">
      <feFlood flood-opacity="0" result="BackgroundImageFix" />
      <feColorMatrix in="SourceAlpha" type="matrix" values="0 0 0 0 0 0 0 0 0 0 0 0 0 0 0 0 0 0 127 0" />
      <feOffset dx="0" dy="2" />
      <feGaussianBlur stdDeviation="1" />
      <feColorMatrix type="matrix" values="0 0 0 0 0 0 0 0 0 0 0 0 0 0 0 0 0 0 0.2 0" />
      <feBlend mode="normal" in2="BackgroundImageFix" result="effect0_dropShadow" />
      <feColorMatrix in="SourceAlpha" type="matrix" values="0 0 0 0 0 0 0 0 0 0 0 0 0 0 0 0 0 0 127 0" />
      <feOffset dx="0" dy="2" />
      <feGaussianBlur stdDeviation="8" />
      <feColorMatrix type="matrix" values="0 0 0 0 0.6156863 0 0 0 0 0.36862746 0 0 0 0 0.60784316 0 0 0 1 0" />
      <feBlend mode="normal" in2="effect0_dropShadow" result="effect1_dropShadow" />
      <feBlend mode="normal" in="SourceGraphic" in2="effect1_dropShadow" result="shape" />
    </filter>
    <filter filterUnits="userSpaceOnUse" color-interpolation-filters="sRGB" id="filter_2">
      <feFlood flood-opacity="0" result="BackgroundImageFix" />
      <feColorMatrix in="SourceAlpha" type="matrix" values="0 0 0 0 0 0 0 0 0 0 0 0 0 0 0 0 0 0 127 0" />
      <feOffset dx="0" dy="1" />
      <feGaussianBlur stdDeviation="1.5" />
      <feColorMatrix type="matrix" values="0 0 0 0 0 0 0 0 0 0 0 0 0 0 0 0 0 0 0.4 0" />
      <feBlend mode="normal" in2="BackgroundImageFix" result="effect0_dropShadow" />
      <feBlend mode="normal" in="SourceGraphic" in2="effect0_dropShadow" result="shape" />
    </filter>
  </defs>
  <g id="Чат" transform="translate(1350 710)">
    <path d="M30 60C46.5685 60 60 46.5685 60 30C60 13.4315 46.5685 0 30 0C13.4315 0 0 13.4315 0 30C0 46.5685 13.4315 60 30 60Z" id="Oval-4" fill="#9D5E9B" fill-rule="evenodd" stroke="none" filter="url(#filter_1)" />
    <path d="M46.4388 14.25L15.0612 14.25C13.4846 14.25 12 15.7257 12 17.3112L12 39.5051C12 41.2797 13.4846 42.7554 15.0612 42.5663L16.5918 42.5663L16.5918 51.75L26.5408 42.5663L46.4388 42.5663C48.0154 42.7554 49.5 41.2797 49.5 39.5051L49.5 17.3112C49.5 15.7257 48.0154 14.25 46.4388 14.25Z" id="Shape" fill="#FFFFFF" fill-rule="evenodd" stroke="none" filter="url(#filter_2)" />
  </g>
</svg>